<svg xmlns="http://www.w3.org/2000/svg" version="1.1" style="font-family:Lato, &#x27;Helvetica Neue&#x27;, Helvetica, Arial, &#x27;Liberation Sans&#x27;, sans-serif;font-size:18px;background-color:#ffffff;text-rendering:geometricPrecision;-webkit-font-smoothing:antialiased" width="850" height="930.15" viewBox="0 0 850 930.15"><defs><style>@import url(https://ourworldindata.org/fonts.css)</style></defs><defs><pattern id="noDataPattern" patternUnits="userSpaceOnUse" width="4" height="4" patternTransform="rotate(-45 2 2)"><path d="M -1,2 l 6,0" stroke="#ccc" stroke-width="0.7"></path></pattern></defs><g id="header" class="HeaderView"><g id="logo" transform="translate(769, 16) scale(1)"><svg className="owidLogo" xmlns="http://www.w3.org/2000/svg" width="65" height="36" viewBox="0 0 65 36"  fill="none"><path fill="#002147" d="M0 0h64.8v36H0z"/><path fill="#CE261E" d="M0 33.3h64.8V36H0z"/><path fill="#fff" d="M13.796 10.575c0 .636-.106 1.226-.318 1.77a4.193 4.193 0 0 1-.894 1.404 4.084 4.084 0 0 1-1.386.93c-.54.22-1.138.33-1.794.33-.656 0-1.256-.11-1.8-.33a4.149 4.149 0 0 1-1.392-.93 4.193 4.193 0 0 1-.894-1.404A4.833 4.833 0 0 1 5 10.575c0-.636.106-1.224.318-1.764a4.18 4.18 0 0 1 .894-1.41 4.076 4.076 0 0 1 1.392-.924 4.684 4.684 0 0 1 1.8-.336c.656 0 1.254.112 1.794.336.54.224 1.002.534 1.386.93.384.392.682.86.894 1.404.212.54.318 1.128.318 1.764Zm-1.656 0c0-.476-.064-.902-.192-1.278a2.671 2.671 0 0 0-.54-.966 2.332 2.332 0 0 0-.864-.606 2.94 2.94 0 0 0-1.14-.21c-.424 0-.806.07-1.146.21-.34.14-.63.342-.87.606a2.742 2.742 0 0 0-.546.966 3.955 3.955 0 0 0-.192 1.278c0 .476.064.904.192 1.284.128.376.31.696.546.96.24.26.53.46.87.6.34.14.722.21 1.146.21.424 0 .804-.07 1.14-.21.34-.14.628-.34.864-.6.236-.264.416-.584.54-.96a4.01 4.01 0 0 0 .192-1.284ZM16.104 8.757v3.912c0 .376.086.668.258.876.176.204.438.306.786.306.256 0 .496-.056.72-.168a2.58 2.58 0 0 0 .636-.474V8.757h1.482v6.156h-.906c-.192 0-.318-.09-.378-.27l-.102-.492a4.65 4.65 0 0 1-.396.354 2.577 2.577 0 0 1-.438.27 2.35 2.35 0 0 1-.498.168 2.345 2.345 0 0 1-.57.066c-.336 0-.634-.056-.894-.168a1.821 1.821 0 0 1-.648-.486 2.157 2.157 0 0 1-.402-.738 3.233 3.233 0 0 1-.132-.948V8.757h1.482ZM21.328 14.913V8.757h.87c.152 0 .258.028.318.084.06.056.1.152.12.288l.09.744c.22-.38.478-.68.774-.9.296-.22.628-.33.996-.33.304 0 .556.07.756.21l-.192 1.11c-.012.072-.038.124-.078.156a.278.278 0 0 1-.162.042 1.01 1.01 0 0 1-.246-.042 1.646 1.646 0 0 0-.414-.042c-.308 0-.572.086-.792.258-.22.168-.406.416-.558.744v3.834h-1.482ZM27.347 6.237h1.356a.57.57 0 0 1 .348.102c.096.064.16.152.192.264l1.476 5.19c.036.128.068.268.096.42.032.148.062.306.09.474a5.968 5.968 0 0 1 .228-.894l1.704-5.19a.575.575 0 0 1 .186-.252.543.543 0 0 1 .348-.114h.474a.57.57 0 0 1 .348.102.497.497 0 0 1 .192.264l1.692 5.19c.088.256.164.54.228.852.028-.156.056-.306.084-.45.032-.144.064-.278.096-.402l1.476-5.19c.028-.1.09-.186.186-.258a.563.563 0 0 1 .348-.108h1.266l-2.694 8.676h-1.458l-1.896-5.928-.078-.246a9.504 9.504 0 0 1-.072-.282c-.024.1-.05.194-.078.282-.024.088-.048.17-.072.246l-1.914 5.928H30.04l-2.694-8.676ZM42.771 8.661c.46 0 .876.074 1.248.222.376.148.696.358.96.63s.468.604.612.996c.144.392.216.83.216 1.314 0 .488-.072.928-.216 1.32a2.85 2.85 0 0 1-.612 1.002 2.653 2.653 0 0 1-.96.636 3.35 3.35 0 0 1-1.248.222c-.46 0-.878-.074-1.254-.222a2.712 2.712 0 0 1-.966-.636 2.922 2.922 0 0 1-.618-1.002 3.807 3.807 0 0 1-.216-1.32c0-.484.072-.922.216-1.314.148-.392.354-.724.618-.996.268-.272.59-.482.966-.63a3.397 3.397 0 0 1 1.254-.222Zm0 5.202c.512 0 .89-.172 1.134-.516.248-.344.372-.848.372-1.512s-.124-1.17-.372-1.518c-.244-.348-.622-.522-1.134-.522-.52 0-.904.176-1.152.528-.248.348-.372.852-.372 1.512s.124 1.164.372 1.512c.248.344.632.516 1.152.516ZM46.723 14.913V8.757h.87c.152 0 .258.028.318.084.06.056.1.152.12.288l.09.744c.22-.38.478-.68.774-.9.296-.22.628-.33.996-.33.304 0 .556.07.756.21l-.192 1.11c-.012.072-.038.124-.078.156a.278.278 0 0 1-.162.042 1.01 1.01 0 0 1-.246-.042 1.646 1.646 0 0 0-.414-.042c-.308 0-.572.086-.792.258-.22.168-.406.416-.558.744v3.834h-1.482ZM52.96 5.997v8.916h-1.482V5.997h1.482ZM58.732 14.913c-.192 0-.318-.09-.378-.27l-.12-.594a3.68 3.68 0 0 1-.402.39c-.14.116-.292.216-.456.3-.16.084-.334.148-.522.192a2.372 2.372 0 0 1-.6.072c-.336 0-.644-.07-.924-.21a2.098 2.098 0 0 1-.726-.606 3.033 3.033 0 0 1-.468-.99 5.072 5.072 0 0 1-.162-1.344c0-.456.062-.88.186-1.272s.302-.732.534-1.02c.232-.288.51-.512.834-.672a2.384 2.384 0 0 1 1.092-.246 2.103 2.103 0 0 1 1.536.606V5.997h1.482v8.916h-.906Zm-1.974-1.086c.308 0 .57-.064.786-.192.216-.128.42-.31.612-.546v-2.76a1.452 1.452 0 0 0-.552-.432 1.597 1.597 0 0 0-.636-.126c-.224 0-.428.042-.612.126a1.21 1.21 0 0 0-.462.384c-.124.168-.22.384-.288.648-.068.26-.102.568-.102.924 0 .36.028.666.084.918.06.248.144.452.252.612.108.156.24.27.396.342.156.068.33.102.522.102ZM16.331 20.757v6.156H14.85v-6.156h1.481Zm.223-1.794a.844.844 0 0 1-.078.36.963.963 0 0 1-.21.294.995.995 0 0 1-.3.204.963.963 0 0 1-.372.072.948.948 0 0 1-.367-.072 1.018 1.018 0 0 1-.498-.498.963.963 0 0 1 0-.732.995.995 0 0 1 .205-.3.929.929 0 0 1 .293-.198.899.899 0 0 1 .738 0 .912.912 0 0 1 .3.198.943.943 0 0 1 .288.672ZM17.771 26.913v-6.156h.906c.192 0 .318.09.378.27l.102.486a2.934 2.934 0 0 1 .828-.618c.156-.076.322-.134.498-.174.176-.04.368-.06.576-.06.336 0 .634.058.894.174.26.112.476.272.648.48.176.204.308.45.396.738.092.284.138.598.138.942v3.918h-1.482v-3.918c0-.376-.088-.666-.264-.87-.172-.208-.432-.312-.78-.312-.256 0-.496.058-.72.174a2.58 2.58 0 0 0-.636.474v4.452h-1.482ZM34.22 22.575c0 .636-.106 1.22-.318 1.752-.212.532-.51.99-.894 1.374a4 4 0 0 1-1.386.894 4.87 4.87 0 0 1-1.794.318h-3.312v-8.676h3.312a4.79 4.79 0 0 1 1.794.324 4 4 0 0 1 1.386.894c.384.38.682.836.894 1.368.212.532.318 1.116.318 1.752Zm-1.65 0c0-.476-.064-.902-.192-1.278a2.68 2.68 0 0 0-.546-.96 2.332 2.332 0 0 0-.864-.606 2.94 2.94 0 0 0-1.14-.21h-1.686v6.108h1.686c.424 0 .804-.07 1.14-.21.34-.14.628-.34.864-.6a2.75 2.75 0 0 0 .546-.96 4.01 4.01 0 0 0 .192-1.284ZM39.98 26.913h-.665c-.14 0-.25-.02-.33-.06-.08-.044-.14-.13-.18-.258l-.132-.438c-.156.14-.31.264-.462.372a2.804 2.804 0 0 1-.462.264c-.16.072-.33.126-.51.162-.18.036-.38.054-.6.054-.26 0-.5-.034-.72-.102a1.618 1.618 0 0 1-.57-.318 1.448 1.448 0 0 1-.366-.522 1.852 1.852 0 0 1-.132-.726c0-.232.06-.46.18-.684.124-.228.328-.432.612-.612.284-.184.662-.336 1.134-.456.472-.12 1.058-.188 1.758-.204v-.36c0-.412-.088-.716-.264-.912-.172-.2-.424-.3-.756-.3a1.837 1.837 0 0 0-1.02.276c-.116.068-.224.13-.324.186a.664.664 0 0 1-.33.084.429.429 0 0 1-.258-.078.614.614 0 0 1-.174-.192l-.27-.474c.708-.648 1.562-.972 2.562-.972.36 0 .68.06.96.18.284.116.524.28.72.492.196.208.344.458.444.75.104.292.156.612.156.96v3.888Zm-2.88-.924c.153 0 .293-.014.42-.042.129-.028.249-.07.36-.126.117-.056.227-.124.33-.204.109-.084.217-.182.325-.294v-1.038c-.432.02-.794.058-1.086.114-.288.052-.52.12-.696.204a.923.923 0 0 0-.378.294.664.664 0 0 0-.108.366c0 .26.076.446.228.558.156.112.358.168.606.168ZM43.22 27.01c-.532 0-.942-.15-1.23-.45-.288-.305-.432-.723-.432-1.255v-3.438h-.624a.31.31 0 0 1-.21-.078c-.056-.052-.084-.13-.084-.234v-.588l.99-.162.312-1.68a.302.302 0 0 1 .108-.186.365.365 0 0 1 .222-.066h.768v1.938h1.62v1.056h-1.62v3.336c0 .192.048.342.144.45a.488.488 0 0 0 .384.162c.092 0 .168-.01.228-.03.064-.024.118-.048.162-.072.048-.024.09-.046.126-.066a.194.194 0 0 1 .108-.036.16.16 0 0 1 .108.036c.028.02.058.052.09.096l.444.72c-.216.18-.464.316-.744.408a2.77 2.77 0 0 1-.87.138ZM50.423 26.913h-.666c-.14 0-.25-.02-.33-.06-.08-.044-.14-.13-.18-.258l-.132-.438c-.156.14-.31.264-.462.372a2.804 2.804 0 0 1-.462.264c-.16.072-.33.126-.51.162-.18.036-.38.054-.6.054-.26 0-.5-.034-.72-.102a1.618 1.618 0 0 1-.57-.318 1.448 1.448 0 0 1-.366-.522 1.852 1.852 0 0 1-.132-.726c0-.232.06-.46.18-.684.124-.228.328-.432.612-.612.284-.184.662-.336 1.134-.456.472-.12 1.058-.188 1.758-.204v-.36c0-.412-.088-.716-.264-.912-.172-.2-.424-.3-.756-.3a1.837 1.837 0 0 0-1.02.276c-.116.068-.224.13-.324.186a.664.664 0 0 1-.33.084.429.429 0 0 1-.258-.078.614.614 0 0 1-.174-.192l-.27-.474c.708-.648 1.562-.972 2.562-.972.36 0 .68.06.96.18.284.116.524.28.72.492.196.208.344.458.444.75.104.292.156.612.156.96v3.888Zm-2.88-.924c.152 0 .292-.014.42-.042.128-.028.248-.07.36-.126.116-.056.226-.124.33-.204.108-.084.216-.182.324-.294v-1.038c-.432.02-.794.058-1.086.114-.288.052-.52.12-.696.204a.923.923 0 0 0-.378.294.664.664 0 0 0-.108.366c0 .26.076.446.228.558.156.112.358.168.606.168Z"/></svg></g><a id="title" href="https://ourworldindata.org/explorers/energy?tab=chart&amp;facet=none&amp;country=USA~GBR~CHN~OWID_WRL~IND~BRA~ZAF~BEN~OWID_AFR~OWID_LMC~AFG~ALB~DZA~AUT~AUS~OWID_ASI~ABW~ARM~ARG~ATG~MLI~MWI~MDG~MRT~MOZ~MAR~NAM~NGA~NER~ZMB~ZWE~TUN~TZA~SLE~SEN~RWA~LBR~LBY~KEN&amp;hideControls=false&amp;Total+or+Breakdown=Total&amp;Energy+or+Electricity=Primary+energy&amp;Metric=Per+capita+consumption" style="font-family:&#x27;Playfair Display&#x27;, Georgia, &#x27;Times New Roman&#x27;, &#x27;Liberation Serif&#x27;, serif" target="_blank" rel="noopener"><text font-size="25.00" font-weight="600" x="16.0" y="40.3" fill="#2d2e2d"><tspan x="16" y="40.25">Energy use per person</tspan></text></a><g id="subtitle" class="markdown-text-wrap"><text x="16.0" y="66.5" style="font-size:15px;line-height:1.2" fill="#5b5b5b"><tspan x="16" y="66.5">Measured in <tspan class="dod-span" data-id="watt-hours">kilowatt-hours<tspan style="font-feature-settings:&quot;sups&quot;">¹</tspan></tspan> per person. Here, energy refers to <tspan class="dod-span" data-id="primaryenergy">primary energy<tspan style="font-feature-settings:&quot;sups&quot;">²</tspan></tspan> using the <tspan class="dod-span" data-id="substitutionmethod">substitution method<tspan style="font-feature-settings:&quot;sups&quot;">³</tspan></tspan>.</tspan></text></g></g><g id="chart-area" style="pointer-events:none"><g id="horizontal-axis" class="HorizontalAxis"><g id="tick-marks"><line id="1965" x1="98" y1="496.2" x2="98" y2="501.7" stroke="#999" stroke-width="1"></line><line id="2023" x1="608.2" y1="496.2" x2="608.2" y2="501.7" stroke="#999" stroke-width="1"></line><line id="1980" x1="229.9" y1="496.2" x2="229.9" y2="501.7" stroke="#999" stroke-width="1"></line><line id="1990" x1="317.9" y1="496.2" x2="317.9" y2="501.7" stroke="#999" stroke-width="1"></line><line id="2000" x1="405.9" y1="496.2" x2="405.9" y2="501.7" stroke="#999" stroke-width="1"></line><line id="2010" x1="493.8" y1="496.2" x2="493.8" y2="501.7" stroke="#999" stroke-width="1"></line></g><g id="tick-labels"><text x="97.96000000000001" y="514.7" fill="#5b5b5b" text-anchor="start" font-size="13">1965</text><text x="608.1800000000001" y="514.7" fill="#5b5b5b" text-anchor="end" font-size="13">2023</text><text x="229.9" y="514.7" fill="#5b5b5b" text-anchor="middle" font-size="13">1980</text><text x="317.9" y="514.7" fill="#5b5b5b" text-anchor="middle" font-size="13">1990</text><text x="405.9" y="514.7" fill="#5b5b5b" text-anchor="middle" font-size="13">2000</text><text x="493.8" y="514.7" fill="#5b5b5b" text-anchor="middle" font-size="13">2010</text></g></g><g id="vertical-axis" class="VerticalAxis"><g id="tick-labels"><text x="92.96" y="496.7" dy=".32em" text-anchor="end" fill="#5b5b5b" font-size="13">0 kWh</text><text x="92.96" y="415.8" dy=".32em" text-anchor="end" fill="#5b5b5b" font-size="13">20,000 kWh</text><text x="92.96" y="334.8" dy=".32em" text-anchor="end" fill="#5b5b5b" font-size="13">40,000 kWh</text><text x="92.96" y="253.9" dy=".32em" text-anchor="end" fill="#5b5b5b" font-size="13">60,000 kWh</text><text x="92.96" y="172.9" dy=".32em" text-anchor="end" fill="#5b5b5b" font-size="13">80,000 kWh</text><text x="92.96" y="92" dy=".32em" text-anchor="end" fill="#5b5b5b" font-size="13">100,000 kWh</text></g></g><g id="horizontal-grid-lines" class="AxisGridLines horizontalLines"><line id="0-kWh" x1="97.96" y1="496.7" x2="608.18" y2="496.7" stroke="#999"></line><line id="20,000-kWh" x1="97.96" y1="415.8" x2="608.18" y2="415.8" stroke="#ddd" stroke-dasharray="4,4"></line><line id="40,000-kWh" x1="97.96" y1="334.8" x2="608.18" y2="334.8" stroke="#ddd" stroke-dasharray="4,4"></line><line id="60,000-kWh" x1="97.96" y1="253.9" x2="608.18" y2="253.9" stroke="#ddd" stroke-dasharray="4,4"></line><line id="80,000-kWh" x1="97.96" y1="172.9" x2="608.18" y2="172.9" stroke="#ddd" stroke-dasharray="4,4"></line><line id="100,000-kWh" x1="97.96" y1="92" x2="608.18" y2="92" stroke="#ddd" stroke-dasharray="4,4"></line></g><g id="line-labels" class="LineLabels"><g id="connectors"><path id="United-States" d="M612.1800000000001,185 H612.9191304347827 V106.9499999999998 H629.1800000000001" stroke="#999" stroke-width="0.5" fill="none"></path><path id="Australia" d="M612.1800000000001,240.7 H613.6582608695653 V125.2499999999998 H629.1800000000001" stroke="#999" stroke-width="0.5" fill="none"></path><path id="Aruba" d="M612.1800000000001,310.2 H614.3973913043479 V143.5499999999998 H629.1800000000001" stroke="#999" stroke-width="0.5" fill="none"></path><path id="Austria" d="M612.1800000000001,322.9 H615.1365217391306 V161.84999999999982 H629.1800000000001" stroke="#999" stroke-width="0.5" fill="none"></path><path id="China" d="M612.1800000000001,362.1 H615.8756521739131 V180.14999999999984 H629.1800000000001" stroke="#999" stroke-width="0.5" fill="none"></path><path id="Antigua-and-Barbuda" d="M612.1800000000001,377.5 H616.6147826086957 V198.44999999999985 H629.1800000000001" stroke="#999" stroke-width="0.5" fill="none"></path><path id="Libya" d="M612.1800000000001,382.3 H617.3539130434783 V216.74999999999986 H629.1800000000001" stroke="#999" stroke-width="0.5" fill="none"></path><path id="South-Africa" d="M612.1800000000001,406.4 H618.0930434782609 V235.04999999999987 H629.1800000000001" stroke="#999" stroke-width="0.5" fill="none"></path><path id="World" d="M612.1800000000001,410.1 H618.8321739130436 V253.34999999999988 H629.1800000000001" stroke="#999" stroke-width="0.5" fill="none"></path><path id="Asia" d="M612.1800000000001,416.1 H619.5713043478262 V271.64999999999986 H629.1800000000001" stroke="#999" stroke-width="0.5" fill="none"></path><path id="Brazil" d="M612.1800000000001,424.6 H620.3104347826088 V289.9499999999999 H629.1800000000001" stroke="#999" stroke-width="0.5" fill="none"></path><path id="Armenia" d="M612.1800000000001,425.1 H621.0495652173914 V308.2499999999999 H629.1800000000001" stroke="#999" stroke-width="0.5" fill="none"></path><path id="Algeria" d="M612.1800000000001,434.1 H621.7886956521739 V326.5499999999999 H629.1800000000001" stroke="#999" stroke-width="0.5" fill="none"></path><path id="Albania" d="M612.1800000000001,439.6 H622.5278260869566 V344.8499999999999 H629.1800000000001" stroke="#999" stroke-width="0.5" fill="none"></path><path id="Tunisia" d="M612.1800000000001,458.2 H623.2669565217392 V363.1499999999999 H629.1800000000001" stroke="#999" stroke-width="0.5" fill="none"></path><path id="Namibia" d="M612.1800000000001,461.3 H624.0060869565218 V381.44999999999993 H629.1800000000001" stroke="#999" stroke-width="0.5" fill="none"></path><path id="Morocco" d="M612.1800000000001,467.7 H624.7452173913044 V399.74999999999994 H629.1800000000001" stroke="#999" stroke-width="0.5" fill="none"></path><path id="Lower-middle-income-countries" d="M612.1800000000001,472.1 H625.4843478260871 V418.04999999999995 H629.1800000000001" stroke="#999" stroke-width="0.5" fill="none"></path><path id="Africa" d="M612.1800000000001,480.6 H626.2234782608697 V436.34999999999997 H629.1800000000001" stroke="#999" stroke-width="0.5" fill="none"></path><path id="Zambia" d="M612.1800000000001,482.9 H626.9626086956523 V454.65 H629.1800000000001" stroke="#999" stroke-width="0.5" fill="none"></path><path id="Mozambique" d="M612.1800000000001,487.6 H627.7017391304348 V472.95 H629.1800000000001" stroke="#999" stroke-width="0.5" fill="none"></path><path id="Mali" d="M612.1800000000001,492 H628.4408695652174 V491.25 H629.1800000000001" stroke="#999" stroke-width="0.5" fill="none"></path><path id="Niger" d="M612.1800000000001,495 H628.4408695652174 V509.55 H629.1800000000001" stroke="#999" stroke-width="0.5" fill="none"></path></g><g id="text-annotations"></g><g id="text-labels"><text id="label__United-States" font-size="13.00" font-weight="400" x="633.2" y="111.8" fill="#286bbb" opacity="1" text-anchor="start"><tspan x="633.1800000000001" y="111.75999999999979">United States</tspan></text><text id="label__Australia" font-size="13.00" font-weight="400" x="633.2" y="130.1" fill="#6d3e91" opacity="1" text-anchor="start"><tspan x="633.1800000000001" y="130.0599999999998">Australia</tspan></text><text id="label__Aruba" font-size="13.00" font-weight="400" x="633.2" y="148.4" fill="#c4523e" opacity="1" text-anchor="start"><tspan x="633.1800000000001" y="148.35999999999981">Aruba</tspan></text><text id="label__Austria" font-size="13.00" font-weight="400" x="633.2" y="166.7" fill="#883039" opacity="1" text-anchor="start"><tspan x="633.1800000000001" y="166.65999999999983">Austria</tspan></text><text id="label__China" font-size="13.00" font-weight="400" x="633.2" y="185.0" fill="#a2559c" opacity="1" text-anchor="start"><tspan x="633.1800000000001" y="184.95999999999984">China</tspan></text><text id="label__Antigua-and-Barbuda" font-size="13.00" font-weight="400" x="633.2" y="203.3" fill="#00847e" opacity="1" text-anchor="start"><tspan x="633.1800000000001" y="203.25999999999985">Antigua and Barbuda</tspan></text><text id="label__Libya" font-size="13.00" font-weight="400" x="633.2" y="221.6" fill="#8c4569" opacity="1" text-anchor="start"><tspan x="633.1800000000001" y="221.55999999999986">Libya</tspan></text><text id="label__South-Africa" font-size="13.00" font-weight="400" x="633.2" y="239.9" fill="#338711" opacity="1" text-anchor="start"><tspan x="633.1800000000001" y="239.85999999999987">South Africa</tspan></text><text id="label__World" font-size="13.00" font-weight="400" x="633.2" y="258.2" fill="#18470f" opacity="1" text-anchor="start"><tspan x="633.1800000000001" y="258.15999999999985">World</tspan></text><text id="label__Asia" font-size="13.00" font-weight="400" x="633.2" y="276.5" fill="#2c8465" opacity="1" text-anchor="start"><tspan x="633.1800000000001" y="276.45999999999987">Asia</tspan></text><text id="label__Brazil" font-size="13.00" font-weight="400" x="633.2" y="294.8" fill="#00295b" opacity="1" text-anchor="start"><tspan x="633.1800000000001" y="294.7599999999999">Brazil</tspan></text><text id="label__Armenia" font-size="13.00" font-weight="400" x="633.2" y="313.1" fill="#18470f" opacity="1" text-anchor="start"><tspan x="633.1800000000001" y="313.0599999999999">Armenia</tspan></text><text id="label__Algeria" font-size="13.00" font-weight="400" x="633.2" y="331.4" fill="#b13507" opacity="1" text-anchor="start"><tspan x="633.1800000000001" y="331.3599999999999">Algeria</tspan></text><text id="label__Albania" font-size="13.00" font-weight="400" x="633.2" y="349.7" fill="#b16214" opacity="1" text-anchor="start"><tspan x="633.1800000000001" y="349.6599999999999">Albania</tspan></text><text id="label__Tunisia" font-size="13.00" font-weight="400" x="633.2" y="368.0" fill="#008291" opacity="1" text-anchor="start"><tspan x="633.1800000000001" y="367.9599999999999">Tunisia</tspan></text><text id="label__Namibia" font-size="13.00" font-weight="400" x="633.2" y="386.3" fill="#286bbb" opacity="1" text-anchor="start"><tspan x="633.1800000000001" y="386.25999999999993">Namibia</tspan></text><text id="label__Morocco" font-size="13.00" font-weight="400" x="633.2" y="404.6" fill="#970046" opacity="1" text-anchor="start"><tspan x="633.1800000000001" y="404.55999999999995">Morocco</tspan></text><text id="label__Lower-middle-income-countries" font-size="13.00" font-weight="400" x="633.2" y="422.9" fill="#008291" opacity="1" text-anchor="start"><tspan x="633.1800000000001" y="422.85999999999996">Lower-middle-income countries</tspan></text><text id="label__Africa" font-size="13.00" font-weight="400" x="633.2" y="441.2" fill="#4c6a9c" opacity="1" text-anchor="start"><tspan x="633.1800000000001" y="441.15999999999997">Africa</tspan></text><text id="label__Zambia" font-size="13.00" font-weight="400" x="633.2" y="459.5" fill="#970046" opacity="1" text-anchor="start"><tspan x="633.1800000000001" y="459.46">Zambia</tspan></text><text id="label__Mozambique" font-size="13.00" font-weight="400" x="633.2" y="477.8" fill="#996d39" opacity="1" text-anchor="start"><tspan x="633.1800000000001" y="477.76">Mozambique</tspan></text><text id="label__Mali" font-size="13.00" font-weight="400" x="633.2" y="496.1" fill="#4c6a9c" opacity="1" text-anchor="start"><tspan x="633.1800000000001" y="496.06">Mali</tspan></text><text id="label__Niger" font-size="13.00" font-weight="400" x="633.2" y="514.4" fill="#2c8465" opacity="1" text-anchor="start"><tspan x="633.1800000000001" y="514.36">Niger</tspan></text></g></g><g id="lines"><path fill="none" stroke-linecap="butt" stroke-linejoin="round" stroke="#ffffff" id="outline__Armenia" stroke-width="2.5" d="M335.5 431.3L344.3 445.2L353.1 449.6L361.9 449.8L370.7 436.2L379.5 445.3L388.3 441.5L397.1 462.2L405.9 459.2L414.6 459.4L423.4 460.6L432.2 456.8L441 455L449.8 448.1L458.6 447.9L467.4 441.5L476.2 443.1L485 448.5L493.8 442.7L502.6 439.5L511.4 435.8L520.2 436.6L529 435.2L537.8 439.5L546.6 438.9L555.4 434.8L564.2 435.5L573 431.2L581.8 427.6L590.6 425.1"></path><path fill="none" stroke-linecap="butt" stroke-linejoin="round" stroke="#18470f" id="line__Armenia" stroke-width="1.5" stroke-opacity="1" d="M335.5 431.3L344.3 445.2L353.1 449.6L361.9 449.8L370.7 436.2L379.5 445.3L388.3 441.5L397.1 462.2L405.9 459.2L414.6 459.4L423.4 460.6L432.2 456.8L441 455L449.8 448.1L458.6 447.9L467.4 441.5L476.2 443.1L485 448.5L493.8 442.7L502.6 439.5L511.4 435.8L520.2 436.6L529 435.2L537.8 439.5L546.6 438.9L555.4 434.8L564.2 435.5L573 431.2L581.8 427.6L590.6 425.1"></path><path fill="none" stroke-linecap="butt" stroke-linejoin="round" stroke="#ffffff" id="outline__Namibia" stroke-width="2.5" d="M317.9 466.7L326.7 481.3L335.5 482.8L344.3 479.8L353.1 481.1L361.9 472.8L370.7 474.2L379.5 475.5L388.3 474L397.1 467L405.9 468.5L414.6 464.7L423.4 466.5L432.2 465.3L441 464.3L449.8 463L458.6 463.5L467.4 463L476.2 461.6L485 461.4L493.8 460.9L502.6 460.1L511.4 459.6L520.2 459L529 457.3L537.8 456.2L546.6 456.8L555.4 456.4L564.2 457.5L573 459.2L581.8 460.4L590.6 461.3"></path><path fill="none" stroke-linecap="butt" stroke-linejoin="round" stroke="#286bbb" id="line__Namibia" stroke-width="1.5" stroke-opacity="1" d="M317.9 466.7L326.7 481.3L335.5 482.8L344.3 479.8L353.1 481.1L361.9 472.8L370.7 474.2L379.5 475.5L388.3 474L397.1 467L405.9 468.5L414.6 464.7L423.4 466.5L432.2 465.3L441 464.3L449.8 463L458.6 463.5L467.4 463L476.2 461.6L485 461.4L493.8 460.9L502.6 460.1L511.4 459.6L520.2 459L529 457.3L537.8 456.2L546.6 456.8L555.4 456.4L564.2 457.5L573 459.2L581.8 460.4L590.6 461.3"></path><path fill="none" stroke-linecap="butt" stroke-linejoin="round" stroke="#ffffff" id="outline__Aruba" stroke-width="2.5" d="M282.7 470L291.5 470L300.3 394L309.1 360.8L317.9 355.6L326.7 347.6L335.5 338.4L344.3 340.7L353.1 330.9L361.9 314.7L370.7 380.3L379.5 314.1L388.3 319.5L397.1 324.7L405.9 296.1L414.6 292.8L423.4 288.4L432.2 267L441 259.3L449.8 242.9L458.6 246.4L467.4 241.9L476.2 260.3L485 263.9L493.8 280.6L502.6 326.4L511.4 285.1L520.2 293.3L529 291.8L537.8 287.2L546.6 294.3L555.4 288.2L564.2 296.3L573 289.9L581.8 320.7L590.6 310.2"></path><path fill="none" stroke-linecap="butt" stroke-linejoin="round" stroke="#c4523e" id="line__Aruba" stroke-width="1.5" stroke-opacity="1" d="M282.7 470L291.5 470L300.3 394L309.1 360.8L317.9 355.6L326.7 347.6L335.5 338.4L344.3 340.7L353.1 330.9L361.9 314.7L370.7 380.3L379.5 314.1L388.3 319.5L397.1 324.7L405.9 296.1L414.6 292.8L423.4 288.4L432.2 267L441 259.3L449.8 242.9L458.6 246.4L467.4 241.9L476.2 260.3L485 263.9L493.8 280.6L502.6 326.4L511.4 285.1L520.2 293.3L529 291.8L537.8 287.2L546.6 294.3L555.4 288.2L564.2 296.3L573 289.9L581.8 320.7L590.6 310.2"></path><path fill="none" stroke-linecap="butt" stroke-linejoin="round" stroke="#ffffff" id="outline__Zimbabwe" stroke-width="2.5" d="M229.9 472.9L238.7 474.2L247.5 476.2L256.3 476.3L265.1 477L273.9 476.7L282.7 475.1L291.5 473.1L300.3 474.1L309.1 472.9L317.9 472.2L326.7 472.3L335.5 474.8L344.3 475.9L353.1 476.9L361.9 477.3L370.7 477.1L379.5 477.7L388.3 477.8L397.1 475.3L405.9 476.8L414.6 478L423.4 478.2L432.2 478.9L441 480.3L449.8 479.9L458.6 479.9L467.4 480.4L476.2 483.2L485 483.5L493.8 482.2L502.6 481.1L511.4 480.1L520.2 480.2L529 480.8L537.8 481.1L546.6 483.6L555.4 484.3L564.2 482.8L573 484.5L581.8 485.9L590.6 486"></path><path fill="none" stroke-linecap="butt" stroke-linejoin="round" stroke="#338711" id="line__Zimbabwe" stroke-width="1.5" stroke-opacity="1" d="M229.9 472.9L238.7 474.2L247.5 476.2L256.3 476.3L265.1 477L273.9 476.7L282.7 475.1L291.5 473.1L300.3 474.1L309.1 472.9L317.9 472.2L326.7 472.3L335.5 474.8L344.3 475.9L353.1 476.9L361.9 477.3L370.7 477.1L379.5 477.7L388.3 477.8L397.1 475.3L405.9 476.8L414.6 478L423.4 478.2L432.2 478.9L441 480.3L449.8 479.9L458.6 479.9L467.4 480.4L476.2 483.2L485 483.5L493.8 482.2L502.6 481.1L511.4 480.1L520.2 480.2L529 480.8L537.8 481.1L546.6 483.6L555.4 484.3L564.2 482.8L573 484.5L581.8 485.9L590.6 486"></path><path fill="none" stroke-linecap="butt" stroke-linejoin="round" stroke="#ffffff" id="outline__Zambia" stroke-width="2.5" d="M229.9 469.1L238.7 470.1L247.5 470.3L256.3 471.3L265.1 472.8L273.9 473.8L282.7 474.6L291.5 476.8L300.3 476.9L309.1 480.1L317.9 479.4L326.7 480.4L335.5 480.4L344.3 481.5L353.1 481.9L361.9 482.9L370.7 483.8L379.5 483.1L388.3 483.8L397.1 484.5L405.9 484.8L414.6 484.6L423.4 484.5L432.2 484.5L441 484.5L449.8 484.3L458.6 484.3L467.4 485.4L476.2 485.4L485 485.6L493.8 485.5L502.6 484.6L511.4 484.1L520.2 483.8L529 483.3L537.8 484.1L546.6 485.2L555.4 483.7L564.2 482.6L573 484.6L581.8 484.2L590.6 482.9"></path><path fill="none" stroke-linecap="butt" stroke-linejoin="round" stroke="#970046" id="line__Zambia" stroke-width="1.5" stroke-opacity="1" d="M229.9 469.1L238.7 470.1L247.5 470.3L256.3 471.3L265.1 472.8L273.9 473.8L282.7 474.6L291.5 476.8L300.3 476.9L309.1 480.1L317.9 479.4L326.7 480.4L335.5 480.4L344.3 481.5L353.1 481.9L361.9 482.9L370.7 483.8L379.5 483.1L388.3 483.8L397.1 484.5L405.9 484.8L414.6 484.6L423.4 484.5L432.2 484.5L441 484.5L449.8 484.3L458.6 484.3L467.4 485.4L476.2 485.4L485 485.6L493.8 485.5L502.6 484.6L511.4 484.1L520.2 483.8L529 483.3L537.8 484.1L546.6 485.2L555.4 483.7L564.2 482.6L573 484.6L581.8 484.2L590.6 482.9"></path><path fill="none" stroke-linecap="butt" stroke-linejoin="round" stroke="#ffffff" id="outline__Tunisia" stroke-width="2.5" d="M229.9 473.5L238.7 472L247.5 473.7L256.3 471.4L265.1 469.5L273.9 469.5L282.7 468.8L291.5 471.4L300.3 470.2L309.1 467.7L317.9 468.5L326.7 473.9L335.5 470.9L344.3 467.8L353.1 466L361.9 469.4L370.7 467.8L379.5 463.6L388.3 461.6L397.1 461.7L405.9 460.3L414.6 456.7L423.4 457.5L432.2 458.4L441 458L449.8 455.1L458.6 457.8L467.4 462.4L476.2 457.4L485 464.2L493.8 463.7L502.6 465.6L511.4 463L520.2 461.4L529 458.2L537.8 457.4L546.6 457.9L555.4 456.1L564.2 455.4L573 455.7L581.8 459.1L590.6 458.2"></path><path fill="none" stroke-linecap="butt" stroke-linejoin="round" stroke="#008291" id="line__Tunisia" stroke-width="1.5" stroke-opacity="1" d="M229.9 473.5L238.7 472L247.5 473.7L256.3 471.4L265.1 469.5L273.9 469.5L282.7 468.8L291.5 471.4L300.3 470.2L309.1 467.7L317.9 468.5L326.7 473.9L335.5 470.9L344.3 467.8L353.1 466L361.9 469.4L370.7 467.8L379.5 463.6L388.3 461.6L397.1 461.7L405.9 460.3L414.6 456.7L423.4 457.5L432.2 458.4L441 458L449.8 455.1L458.6 457.8L467.4 462.4L476.2 457.4L485 464.2L493.8 463.7L502.6 465.6L511.4 463L520.2 461.4L529 458.2L537.8 457.4L546.6 457.9L555.4 456.1L564.2 455.4L573 455.7L581.8 459.1L590.6 458.2"></path><path fill="none" stroke-linecap="butt" stroke-linejoin="round" stroke="#ffffff" id="outline__Tanzania" stroke-width="2.5" d="M229.9 494.4L238.7 494.1L247.5 494.3L256.3 494.5L265.1 494.4L273.9 494.4L282.7 494.2L291.5 494.5L300.3 494.4L309.1 494.4L317.9 494.2L326.7 494.5L335.5 494.4L344.3 494.4L353.1 494.7L361.9 494.8L370.7 494.7L379.5 494.9L388.3 494.7L397.1 494.6L405.9 494.6L414.6 494.4L423.4 494.2L432.2 494.3L441 493.8L449.8 493.7L458.6 493.7L467.4 493.6L476.2 493.5L485 493.6L493.8 493.3L502.6 493.3L511.4 492.7L520.2 492.7L529 492.6L537.8 492.6L546.6 492.4L555.4 492.9L564.2 492.8L573 492.8L581.8 493L590.6 493"></path><path fill="none" stroke-linecap="butt" stroke-linejoin="round" stroke="#9a5129" id="line__Tanzania" stroke-width="1.5" stroke-opacity="1" d="M229.9 494.4L238.7 494.1L247.5 494.3L256.3 494.5L265.1 494.4L273.9 494.4L282.7 494.2L291.5 494.5L300.3 494.4L309.1 494.4L317.9 494.2L326.7 494.5L335.5 494.4L344.3 494.4L353.1 494.7L361.9 494.8L370.7 494.7L379.5 494.9L388.3 494.7L397.1 494.6L405.9 494.6L414.6 494.4L423.4 494.2L432.2 494.3L441 493.8L449.8 493.7L458.6 493.7L467.4 493.6L476.2 493.5L485 493.6L493.8 493.3L502.6 493.3L511.4 492.7L520.2 492.7L529 492.6L537.8 492.6L546.6 492.4L555.4 492.9L564.2 492.8L573 492.8L581.8 493L590.6 493"></path><path fill="none" stroke-linecap="butt" stroke-linejoin="round" stroke="#ffffff" id="outline__Sierra-Leone" stroke-width="2.5" d="M229.9 492.9L238.7 493L247.5 492.8L256.3 493.2L265.1 493.2L273.9 493L282.7 492.9L291.5 492.6L300.3 492.4L309.1 492.6L317.9 492.7L326.7 492.5L335.5 493.6L344.3 493.6L353.1 493.8L361.9 493.4L370.7 493.4L379.5 493.3L388.3 493.3L397.1 493.4L405.9 495L414.6 494.7L423.4 494.8L432.2 494.9L441 494.9L449.8 495.1L458.6 494.8L467.4 495L476.2 495.1L485 495.1L493.8 494.8L502.6 494.4L511.4 494.2L520.2 493.9L529 493.7L537.8 494.3L546.6 494.3L555.4 494.4L564.2 494.4L573 494.6L581.8 494.8L590.6 494.7"></path><path fill="none" stroke-linecap="butt" stroke-linejoin="round" stroke="#a2559c" id="line__Sierra-Leone" stroke-width="1.5" stroke-opacity="1" d="M229.9 492.9L238.7 493L247.5 492.8L256.3 493.2L265.1 493.2L273.9 493L282.7 492.9L291.5 492.6L300.3 492.4L309.1 492.6L317.9 492.7L326.7 492.5L335.5 493.6L344.3 493.6L353.1 493.8L361.9 493.4L370.7 493.4L379.5 493.3L388.3 493.3L397.1 493.4L405.9 495L414.6 494.7L423.4 494.8L432.2 494.9L441 494.9L449.8 495.1L458.6 494.8L467.4 495L476.2 495.1L485 495.1L493.8 494.8L502.6 494.4L511.4 494.2L520.2 493.9L529 493.7L537.8 494.3L546.6 494.3L555.4 494.4L564.2 494.4L573 494.6L581.8 494.8L590.6 494.7"></path><path fill="none" stroke-linecap="butt" stroke-linejoin="round" stroke="#ffffff" id="outline__Senegal" stroke-width="2.5" d="M229.9 489.4L238.7 489.6L247.5 489.8L256.3 490.4L265.1 489L273.9 489.6L282.7 489.6L291.5 489.8L300.3 490.9L309.1 490.9L317.9 491L326.7 491.6L335.5 490.7L344.3 490.6L353.1 489.5L361.9 489.1L370.7 489.2L379.5 490L388.3 489.8L397.1 489.2L405.9 488.4L414.6 487.9L423.4 487.8L432.2 487.9L441 487.6L449.8 487.5L458.6 487.9L467.4 487.5L476.2 487.5L485 488.1L493.8 488L502.6 487.9L511.4 488.2L520.2 488.1L529 487.4L537.8 486.3L546.6 486.9L555.4 486.5L564.2 486.4L573 485.6L581.8 486.5L590.6 486.6"></path><path fill="none" stroke-linecap="butt" stroke-linejoin="round" stroke="#00295b" id="line__Senegal" stroke-width="1.5" stroke-opacity="1" d="M229.9 489.4L238.7 489.6L247.5 489.8L256.3 490.4L265.1 489L273.9 489.6L282.7 489.6L291.5 489.8L300.3 490.9L309.1 490.9L317.9 491L326.7 491.6L335.5 490.7L344.3 490.6L353.1 489.5L361.9 489.1L370.7 489.2L379.5 490L388.3 489.8L397.1 489.2L405.9 488.4L414.6 487.9L423.4 487.8L432.2 487.9L441 487.6L449.8 487.5L458.6 487.9L467.4 487.5L476.2 487.5L485 488.1L493.8 488L502.6 487.9L511.4 488.2L520.2 488.1L529 487.4L537.8 486.3L546.6 486.9L555.4 486.5L564.2 486.4L573 485.6L581.8 486.5L590.6 486.6"></path><path fill="none" stroke-linecap="butt" stroke-linejoin="round" stroke="#ffffff" id="outline__Rwanda" stroke-width="2.5" d="M229.9 495.9L238.7 495.3L247.5 495.3L256.3 495.2L265.1 494.6L273.9 494.6L282.7 494.7L291.5 494.7L300.3 494.8L309.1 494.8L317.9 494.8L326.7 494.8L335.5 494.8L344.3 495L353.1 494.7L361.9 494.3L370.7 494.7L379.5 494.9L388.3 494.9L397.1 495L405.9 495.3L414.6 495.3L423.4 495.3L432.2 495.3L441 495.4L449.8 495.5L458.6 495.6L467.4 495.6L476.2 495.5L485 495.5L493.8 495.4L502.6 495.3L511.4 495.2L520.2 495.1L529 495.1L537.8 494.9L546.6 495L555.4 494.8L564.2 494.7L573 494.6L581.8 494.7L590.6 494.8"></path><path fill="none" stroke-linecap="butt" stroke-linejoin="round" stroke="#883039" id="line__Rwanda" stroke-width="1.5" stroke-opacity="1" d="M229.9 495.9L238.7 495.3L247.5 495.3L256.3 495.2L265.1 494.6L273.9 494.6L282.7 494.7L291.5 494.7L300.3 494.8L309.1 494.8L317.9 494.8L326.7 494.8L335.5 494.8L344.3 495L353.1 494.7L361.9 494.3L370.7 494.7L379.5 494.9L388.3 494.9L397.1 495L405.9 495.3L414.6 495.3L423.4 495.3L432.2 495.3L441 495.4L449.8 495.5L458.6 495.6L467.4 495.6L476.2 495.5L485 495.5L493.8 495.4L502.6 495.3L511.4 495.2L520.2 495.1L529 495.1L537.8 494.9L546.6 495L555.4 494.8L564.2 494.7L573 494.6L581.8 494.7L590.6 494.8"></path><path fill="none" stroke-linecap="butt" stroke-linejoin="round" stroke="#ffffff" id="outline__Nigeria" stroke-width="2.5" d="M229.9 489.9L238.7 488.6L247.5 488.8L256.3 489L265.1 488.5L273.9 488.2L282.7 488.6L291.5 488.4L300.3 488L309.1 487.5L317.9 488L326.7 487.4L335.5 487.4L344.3 487.5L353.1 488.3L361.9 487.6L370.7 487.6L379.5 487.9L388.3 488.4L397.1 488.6L405.9 489.3L414.6 488.6L423.4 488.4L432.2 488.2L441 488.1L449.8 487.6L458.6 488.8L467.4 489.6L476.2 488.4L485 491.6L493.8 490.6L502.6 488.2L511.4 488.5L520.2 486.4L529 485.7L537.8 486.6L546.6 486.6L555.4 487.2L564.2 486.7L573 486.7L581.8 486.8L590.6 486.4"></path><path fill="none" stroke-linecap="butt" stroke-linejoin="round" stroke="#6d3e91" id="line__Nigeria" stroke-width="1.5" stroke-opacity="1" d="M229.9 489.9L238.7 488.6L247.5 488.8L256.3 489L265.1 488.5L273.9 488.2L282.7 488.6L291.5 488.4L300.3 488L309.1 487.5L317.9 488L326.7 487.4L335.5 487.4L344.3 487.5L353.1 488.3L361.9 487.6L370.7 487.6L379.5 487.9L388.3 488.4L397.1 488.6L405.9 489.3L414.6 488.6L423.4 488.4L432.2 488.2L441 488.1L449.8 487.6L458.6 488.8L467.4 489.6L476.2 488.4L485 491.6L493.8 490.6L502.6 488.2L511.4 488.5L520.2 486.4L529 485.7L537.8 486.6L546.6 486.6L555.4 487.2L564.2 486.7L573 486.7L581.8 486.8L590.6 486.4"></path><path fill="none" stroke-linecap="butt" stroke-linejoin="round" stroke="#ffffff" id="outline__Niger" stroke-width="2.5" d="M229.9 495L238.7 495L247.5 495L256.3 495.1L265.1 495L273.9 495.1L282.7 495.4L291.5 495.3L300.3 494.8L309.1 494.8L317.9 494.9L326.7 494.9L335.5 495L344.3 495L353.1 495L361.9 495L370.7 495.1L379.5 495.1L388.3 495.1L397.1 495.3L405.9 495.5L414.6 495.6L423.4 495.6L432.2 495.5L441 495.4L449.8 495.6L458.6 495.6L467.4 495.5L476.2 495.5L485 495.3L493.8 495L502.6 495.1L511.4 494.6L520.2 494.5L529 494.6L537.8 494.6L546.6 494.8L555.4 494.9L564.2 494.8L573 494.8L581.8 494.9L590.6 495"></path><path fill="none" stroke-linecap="butt" stroke-linejoin="round" stroke="#2c8465" id="line__Niger" stroke-width="1.5" stroke-opacity="1" d="M229.9 495L238.7 495L247.5 495L256.3 495.1L265.1 495L273.9 495.1L282.7 495.4L291.5 495.3L300.3 494.8L309.1 494.8L317.9 494.9L326.7 494.9L335.5 495L344.3 495L353.1 495L361.9 495L370.7 495.1L379.5 495.1L388.3 495.1L397.1 495.3L405.9 495.5L414.6 495.6L423.4 495.6L432.2 495.5L441 495.4L449.8 495.6L458.6 495.6L467.4 495.5L476.2 495.5L485 495.3L493.8 495L502.6 495.1L511.4 494.6L520.2 494.5L529 494.6L537.8 494.6L546.6 494.8L555.4 494.9L564.2 494.8L573 494.8L581.8 494.9L590.6 495"></path><path fill="none" stroke-linecap="butt" stroke-linejoin="round" stroke="#ffffff" id="outline__Mozambique" stroke-width="2.5" d="M229.9 479.4L238.7 490.8L247.5 491L256.3 488.9L265.1 493.8L273.9 494L282.7 495.3L291.5 495.3L300.3 494.6L309.1 495L317.9 495L326.7 495L335.5 495.1L344.3 495L353.1 495.1L361.9 495.1L370.7 495.1L379.5 494.8L388.3 494.5L397.1 491.4L405.9 490L414.6 488.4L423.4 488.5L432.2 488.6L441 488.4L449.8 487.8L458.6 487.3L467.4 486.5L476.2 487.3L485 486.9L493.8 487.2L502.6 486.2L511.4 485.8L520.2 485.5L529 484.6L537.8 484.2L546.6 484.3L555.4 484.6L564.2 487.1L573 486.8L581.8 487.6L590.6 487.6"></path><path fill="none" stroke-linecap="butt" stroke-linejoin="round" stroke="#996d39" id="line__Mozambique" stroke-width="1.5" stroke-opacity="1" d="M229.9 479.4L238.7 490.8L247.5 491L256.3 488.9L265.1 493.8L273.9 494L282.7 495.3L291.5 495.3L300.3 494.6L309.1 495L317.9 495L326.7 495L335.5 495.1L344.3 495L353.1 495.1L361.9 495.1L370.7 495.1L379.5 494.8L388.3 494.5L397.1 491.4L405.9 490L414.6 488.4L423.4 488.5L432.2 488.6L441 488.4L449.8 487.8L458.6 487.3L467.4 486.5L476.2 487.3L485 486.9L493.8 487.2L502.6 486.2L511.4 485.8L520.2 485.5L529 484.6L537.8 484.2L546.6 484.3L555.4 484.6L564.2 487.1L573 486.8L581.8 487.6L590.6 487.6"></path><path fill="none" stroke-linecap="butt" stroke-linejoin="round" stroke="#ffffff" id="outline__Mauritania" stroke-width="2.5" d="M229.9 489.6L238.7 490.1L247.5 490.2L256.3 490.4L265.1 487.7L273.9 488L282.7 491.8L291.5 490.2L300.3 488.5L309.1 487.5L317.9 488.7L326.7 488.5L335.5 471.3L344.3 471.7L353.1 472.6L361.9 472.9L370.7 473.1L379.5 473.6L388.3 474.1L397.1 474.7L405.9 489.1L414.6 489L423.4 488.6L432.2 488.4L441 488L449.8 487.8L458.6 488.2L467.4 487.3L476.2 485.4L485 485.8L493.8 486.2L502.6 485.7L511.4 484.9L520.2 486.3L529 484.6L537.8 484.7L546.6 485.8L555.4 480.8L564.2 480.2L573 479.9L581.8 481L590.6 480.6"></path><path fill="none" stroke-linecap="butt" stroke-linejoin="round" stroke="#b13507" id="line__Mauritania" stroke-width="1.5" stroke-opacity="1" d="M229.9 489.6L238.7 490.1L247.5 490.2L256.3 490.4L265.1 487.7L273.9 488L282.7 491.8L291.5 490.2L300.3 488.5L309.1 487.5L317.9 488.7L326.7 488.5L335.5 471.3L344.3 471.7L353.1 472.6L361.9 472.9L370.7 473.1L379.5 473.6L388.3 474.1L397.1 474.7L405.9 489.1L414.6 489L423.4 488.6L432.2 488.4L441 488L449.8 487.8L458.6 488.2L467.4 487.3L476.2 485.4L485 485.8L493.8 486.2L502.6 485.7L511.4 484.9L520.2 486.3L529 484.6L537.8 484.7L546.6 485.8L555.4 480.8L564.2 480.2L573 479.9L581.8 481L590.6 480.6"></path><path fill="none" stroke-linecap="butt" stroke-linejoin="round" stroke="#ffffff" id="outline__Mali" stroke-width="2.5" d="M229.9 495.6L238.7 495.3L247.5 495.6L256.3 495.6L265.1 495.6L273.9 495.5L282.7 495.7L291.5 495.6L300.3 496L309.1 495.6L317.9 495.6L326.7 495.6L335.5 495.5L344.3 495.6L353.1 495.6L361.9 495.6L370.7 495.6L379.5 495.6L388.3 495.6L397.1 495.6L405.9 495.1L414.6 495.1L423.4 495.2L432.2 495.3L441 495.3L449.8 495.2L458.6 495L467.4 494.7L476.2 494.4L485 493.9L493.8 493.6L502.6 493.4L511.4 493.3L520.2 493.3L529 493.1L537.8 492.8L546.6 492L555.4 491.7L564.2 491.7L573 491.7L581.8 492.1L590.6 492"></path><path fill="none" stroke-linecap="butt" stroke-linejoin="round" stroke="#4c6a9c" id="line__Mali" stroke-width="1.5" stroke-opacity="1" d="M229.9 495.6L238.7 495.3L247.5 495.6L256.3 495.6L265.1 495.6L273.9 495.5L282.7 495.7L291.5 495.6L300.3 496L309.1 495.6L317.9 495.6L326.7 495.6L335.5 495.5L344.3 495.6L353.1 495.6L361.9 495.6L370.7 495.6L379.5 495.6L388.3 495.6L397.1 495.6L405.9 495.1L414.6 495.1L423.4 495.2L432.2 495.3L441 495.3L449.8 495.2L458.6 495L467.4 494.7L476.2 494.4L485 493.9L493.8 493.6L502.6 493.4L511.4 493.3L520.2 493.3L529 493.1L537.8 492.8L546.6 492L555.4 491.7L564.2 491.7L573 491.7L581.8 492.1L590.6 492"></path><path fill="none" stroke-linecap="butt" stroke-linejoin="round" stroke="#ffffff" id="outline__Malawi" stroke-width="2.5" d="M229.9 494.4L238.7 494.4L247.5 494.6L256.3 494.8L265.1 494.9L273.9 494.8L282.7 494.9L291.5 494.9L300.3 495L309.1 494.9L317.9 494.7L326.7 494.5L335.5 494.5L344.3 494.6L353.1 494.4L361.9 494.3L370.7 494.4L379.5 494.4L388.3 494.3L397.1 494.4L405.9 494.2L414.6 494.3L423.4 494.4L432.2 494.4L441 494.3L449.8 494.4L458.6 494.4L467.4 494.5L476.2 494.2L485 494.5L493.8 494.1L502.6 494.2L511.4 494.2L520.2 494.3L529 494.3L537.8 494.4L546.6 494.3L555.4 494.3L564.2 494.5L573 494.5L581.8 494.7L590.6 494.8"></path><path fill="none" stroke-linecap="butt" stroke-linejoin="round" stroke="#c15065" id="line__Malawi" stroke-width="1.5" stroke-opacity="1" d="M229.9 494.4L238.7 494.4L247.5 494.6L256.3 494.8L265.1 494.9L273.9 494.8L282.7 494.9L291.5 494.9L300.3 495L309.1 494.9L317.9 494.7L326.7 494.5L335.5 494.5L344.3 494.6L353.1 494.4L361.9 494.3L370.7 494.4L379.5 494.4L388.3 494.3L397.1 494.4L405.9 494.2L414.6 494.3L423.4 494.4L432.2 494.4L441 494.3L449.8 494.4L458.6 494.4L467.4 494.5L476.2 494.2L485 494.5L493.8 494.1L502.6 494.2L511.4 494.2L520.2 494.3L529 494.3L537.8 494.4L546.6 494.3L555.4 494.3L564.2 494.5L573 494.5L581.8 494.7L590.6 494.8"></path><path fill="none" stroke-linecap="butt" stroke-linejoin="round" stroke="#ffffff" id="outline__Madagascar" stroke-width="2.5" d="M229.9 494.2L238.7 494.5L247.5 494.8L256.3 494.3L265.1 494.3L273.9 494.3L282.7 495L291.5 494.4L300.3 494.3L309.1 495L317.9 495L326.7 495L335.5 494.9L344.3 495L353.1 494.9L361.9 494.9L370.7 494.9L379.5 494.9L388.3 494.9L397.1 495L405.9 494.3L414.6 494.4L423.4 495L432.2 494.6L441 494.5L449.8 494.6L458.6 494.7L467.4 494.6L476.2 494.5L485 494.9L493.8 494.8L502.6 494.6L511.4 494.3L520.2 494.3L529 494.1L537.8 494L546.6 493.9L555.4 494.2L564.2 494.4L573 494L581.8 494.9L590.6 494.6"></path><path fill="none" stroke-linecap="butt" stroke-linejoin="round" stroke="#00875e" id="line__Madagascar" stroke-width="1.5" stroke-opacity="1" d="M229.9 494.2L238.7 494.5L247.5 494.8L256.3 494.3L265.1 494.3L273.9 494.3L282.7 495L291.5 494.4L300.3 494.3L309.1 495L317.9 495L326.7 495L335.5 494.9L344.3 495L353.1 494.9L361.9 494.9L370.7 494.9L379.5 494.9L388.3 494.9L397.1 495L405.9 494.3L414.6 494.4L423.4 495L432.2 494.6L441 494.5L449.8 494.6L458.6 494.7L467.4 494.6L476.2 494.5L485 494.9L493.8 494.8L502.6 494.6L511.4 494.3L520.2 494.3L529 494.1L537.8 494L546.6 493.9L555.4 494.2L564.2 494.4L573 494L581.8 494.9L590.6 494.6"></path><path fill="none" stroke-linecap="butt" stroke-linejoin="round" stroke="#ffffff" id="outline__Libya" stroke-width="2.5" d="M229.9 335.9L238.7 359.6L247.5 367.4L256.3 364L265.1 369L273.9 360.9L282.7 358.9L291.5 359.1L300.3 359.7L309.1 358.6L317.9 354.5L326.7 351.8L335.5 364.6L344.3 362.9L353.1 361.2L361.9 358L370.7 352.8L379.5 347.7L388.3 355.5L397.1 371.2L405.9 329.5L414.6 332L423.4 331L432.2 337.5L441 337.8L449.8 336.6L458.6 353.2L467.4 357L476.2 354.8L485 337.6L493.8 332.4L502.6 383.5L511.4 348.1L520.2 339.9L529 346.4L537.8 378.9L546.6 383.1L555.4 370.4L564.2 368.6L573 365.5L581.8 383.3L590.6 382.3"></path><path fill="none" stroke-linecap="butt" stroke-linejoin="round" stroke="#8c4569" id="line__Libya" stroke-width="1.5" stroke-opacity="1" d="M229.9 335.9L238.7 359.6L247.5 367.4L256.3 364L265.1 369L273.9 360.9L282.7 358.9L291.5 359.1L300.3 359.7L309.1 358.6L317.9 354.5L326.7 351.8L335.5 364.6L344.3 362.9L353.1 361.2L361.9 358L370.7 352.8L379.5 347.7L388.3 355.5L397.1 371.2L405.9 329.5L414.6 332L423.4 331L432.2 337.5L441 337.8L449.8 336.6L458.6 353.2L467.4 357L476.2 354.8L485 337.6L493.8 332.4L502.6 383.5L511.4 348.1L520.2 339.9L529 346.4L537.8 378.9L546.6 383.1L555.4 370.4L564.2 368.6L573 365.5L581.8 383.3L590.6 382.3"></path><path fill="none" stroke-linecap="butt" stroke-linejoin="round" stroke="#ffffff" id="outline__Liberia" stroke-width="2.5" d="M229.9 477.3L238.7 479.3L247.5 479.7L256.3 480.2L265.1 482.4L273.9 482.7L282.7 486L291.5 488.5L300.3 486.8L309.1 488.6L317.9 492.3L326.7 493.9L335.5 493.9L344.3 493.7L353.1 493.7L361.9 493.7L370.7 493.7L379.5 493.9L388.3 494.1L397.1 494.3L405.9 494.1L414.6 494L423.4 494.1L432.2 493.8L441 493.6L449.8 493.3L458.6 493.4L467.4 493.8L476.2 494.2L485 494.5L493.8 493.3L502.6 493.1L511.4 492.8L520.2 493.3L529 492.4L537.8 492.4L546.6 491.9L555.4 492.6L564.2 492.2L573 492.2L581.8 492.5L590.6 492.4"></path><path fill="none" stroke-linecap="butt" stroke-linejoin="round" stroke="#be5915" id="line__Liberia" stroke-width="1.5" stroke-opacity="1" d="M229.9 477.3L238.7 479.3L247.5 479.7L256.3 480.2L265.1 482.4L273.9 482.7L282.7 486L291.5 488.5L300.3 486.8L309.1 488.6L317.9 492.3L326.7 493.9L335.5 493.9L344.3 493.7L353.1 493.7L361.9 493.7L370.7 493.7L379.5 493.9L388.3 494.1L397.1 494.3L405.9 494.1L414.6 494L423.4 494.1L432.2 493.8L441 493.6L449.8 493.3L458.6 493.4L467.4 493.8L476.2 494.2L485 494.5L493.8 493.3L502.6 493.1L511.4 492.8L520.2 493.3L529 492.4L537.8 492.4L546.6 491.9L555.4 492.6L564.2 492.2L573 492.2L581.8 492.5L590.6 492.4"></path><path fill="none" stroke-linecap="butt" stroke-linejoin="round" stroke="#ffffff" id="outline__Kenya" stroke-width="2.5" d="M229.9 489.4L238.7 489.6L247.5 489.8L256.3 490.2L265.1 490.5L273.9 490.4L282.7 490.3L291.5 491.1L300.3 490.5L309.1 490.3L317.9 490.4L326.7 491.1L335.5 490.8L344.3 490.8L353.1 490.8L361.9 490.6L370.7 490.5L379.5 491.1L388.3 490.7L397.1 491.1L405.9 490.7L414.6 490.8L423.4 490.9L432.2 491.4L441 491.1L449.8 490.8L458.6 490.4L467.4 490.6L476.2 490.8L485 490.5L493.8 490.1L502.6 490.1L511.4 490.3L520.2 490.1L529 490L537.8 489L546.6 488.7L555.4 488.9L564.2 488.4L573 488.8L581.8 489L590.6 488.8"></path><path fill="none" stroke-linecap="butt" stroke-linejoin="round" stroke="#578145" id="line__Kenya" stroke-width="1.5" stroke-opacity="1" d="M229.9 489.4L238.7 489.6L247.5 489.8L256.3 490.2L265.1 490.5L273.9 490.4L282.7 490.3L291.5 491.1L300.3 490.5L309.1 490.3L317.9 490.4L326.7 491.1L335.5 490.8L344.3 490.8L353.1 490.8L361.9 490.6L370.7 490.5L379.5 491.1L388.3 490.7L397.1 491.1L405.9 490.7L414.6 490.8L423.4 490.9L432.2 491.4L441 491.1L449.8 490.8L458.6 490.4L467.4 490.6L476.2 490.8L485 490.5L493.8 490.1L502.6 490.1L511.4 490.3L520.2 490.1L529 490L537.8 489L546.6 488.7L555.4 488.9L564.2 488.4L573 488.8L581.8 489L590.6 488.8"></path><path fill="none" stroke-linecap="butt" stroke-linejoin="round" stroke="#ffffff" id="outline__Benin" stroke-width="2.5" d="M229.9 494.7L238.7 494.7L247.5 495.3L256.3 494.8L265.1 494.9L273.9 494.6L282.7 494.7L291.5 495.2L300.3 494.9L309.1 494.9L317.9 494.7L326.7 494.4L335.5 494.2L344.3 494.1L353.1 494.1L361.9 493.9L370.7 493.8L379.5 493.6L388.3 493.5L397.1 495.2L405.9 492.7L414.6 492.3L423.4 491.8L432.2 491.2L441 491.1L449.8 491.6L458.6 489.9L467.4 488.9L476.2 489L485 488.4L493.8 487.4L502.6 488.3L511.4 489L520.2 489.1L529 488.8L537.8 488.3L546.6 486.7L555.4 486.4L564.2 485.6L573 486.9L581.8 486.5L590.6 486.6"></path><path fill="none" stroke-linecap="butt" stroke-linejoin="round" stroke="#cf0a66" id="line__Benin" stroke-width="1.5" stroke-opacity="1" d="M229.9 494.7L238.7 494.7L247.5 495.3L256.3 494.8L265.1 494.9L273.9 494.6L282.7 494.7L291.5 495.2L300.3 494.9L309.1 494.9L317.9 494.7L326.7 494.4L335.5 494.2L344.3 494.1L353.1 494.1L361.9 493.9L370.7 493.8L379.5 493.6L388.3 493.5L397.1 495.2L405.9 492.7L414.6 492.3L423.4 491.8L432.2 491.2L441 491.1L449.8 491.6L458.6 489.9L467.4 488.9L476.2 489L485 488.4L493.8 487.4L502.6 488.3L511.4 489L520.2 489.1L529 488.8L537.8 488.3L546.6 486.7L555.4 486.4L564.2 485.6L573 486.9L581.8 486.5L590.6 486.6"></path><path fill="none" stroke-linecap="butt" stroke-linejoin="round" stroke="#ffffff" id="outline__Antigua-and-Barbuda" stroke-width="2.5" d="M229.9 390.6L238.7 402.5L247.5 368.9L256.3 421.7L265.1 414L273.9 413.8L282.7 412L291.5 390.6L300.3 389.7L309.1 389.5L317.9 384.9L326.7 385.9L335.5 387.3L344.3 389.6L353.1 384.1L361.9 379L370.7 381.1L379.5 380.2L388.3 382.4L397.1 384.3L405.9 381.5L414.6 383.3L423.4 376.7L432.2 372L441 368.7L449.8 368.3L458.6 366L467.4 361.6L476.2 360.6L485 356.2L493.8 362.7L502.6 364.7L511.4 362.5L520.2 363.7L529 361.9L537.8 359.8L546.6 358.7L555.4 366.3L564.2 363L573 363L581.8 384.3L590.6 377.5"></path><path fill="none" stroke-linecap="butt" stroke-linejoin="round" stroke="#00847e" id="line__Antigua-and-Barbuda" stroke-width="1.5" stroke-opacity="1" d="M229.9 390.6L238.7 402.5L247.5 368.9L256.3 421.7L265.1 414L273.9 413.8L282.7 412L291.5 390.6L300.3 389.7L309.1 389.5L317.9 384.9L326.7 385.9L335.5 387.3L344.3 389.6L353.1 384.1L361.9 379L370.7 381.1L379.5 380.2L388.3 382.4L397.1 384.3L405.9 381.5L414.6 383.3L423.4 376.7L432.2 372L441 368.7L449.8 368.3L458.6 366L467.4 361.6L476.2 360.6L485 356.2L493.8 362.7L502.6 364.7L511.4 362.5L520.2 363.7L529 361.9L537.8 359.8L546.6 358.7L555.4 366.3L564.2 363L573 363L581.8 384.3L590.6 377.5"></path><path fill="none" stroke-linecap="butt" stroke-linejoin="round" stroke="#ffffff" id="outline__Albania" stroke-width="2.5" d="M229.9 431L238.7 432.5L247.5 433.2L256.3 431.7L265.1 432.2L273.9 433.1L282.7 435.3L291.5 435.7L300.3 435.4L309.1 438.8L317.9 455.4L326.7 462.1L335.5 466.5L344.3 470.2L353.1 471.4L361.9 468.7L370.7 465.8L379.5 468.3L388.3 465.9L397.1 468.8L405.9 460.2L414.6 461.8L423.4 458.5L432.2 453.2L441 449.8L449.8 450L458.6 452.3L467.4 458.1L476.2 454.2L485 450.1L493.8 446.6L502.6 452.8L511.4 453.6L520.2 442.5L529 448.9L537.8 448.8L546.6 440.8L555.4 444.9L564.2 437.6L573 449.8L581.8 451.5L590.6 439.6"></path><path fill="none" stroke-linecap="butt" stroke-linejoin="round" stroke="#b16214" id="line__Albania" stroke-width="1.5" stroke-opacity="1" d="M229.9 431L238.7 432.5L247.5 433.2L256.3 431.7L265.1 432.2L273.9 433.1L282.7 435.3L291.5 435.7L300.3 435.4L309.1 438.8L317.9 455.4L326.7 462.1L335.5 466.5L344.3 470.2L353.1 471.4L361.9 468.7L370.7 465.8L379.5 468.3L388.3 465.9L397.1 468.8L405.9 460.2L414.6 461.8L423.4 458.5L432.2 453.2L441 449.8L449.8 450L458.6 452.3L467.4 458.1L476.2 454.2L485 450.1L493.8 446.6L502.6 452.8L511.4 453.6L520.2 442.5L529 448.9L537.8 448.8L546.6 440.8L555.4 444.9L564.2 437.6L573 449.8L581.8 451.5L590.6 439.6"></path><path fill="none" stroke-linecap="butt" stroke-linejoin="round" stroke="#ffffff" id="outline__Afghanistan" stroke-width="2.5" d="M229.9 494.2L238.7 493.5L247.5 492.9L256.3 492L265.1 492.2L273.9 492.4L282.7 492.3L291.5 489.5L300.3 484L309.1 484.5L317.9 484.7L326.7 491.5L335.5 493.6L344.3 494.1L353.1 494.4L361.9 494.9L370.7 495L379.5 495.1L388.3 495.2L397.1 495.3L405.9 495.5L414.6 495.7L423.4 495.8L432.2 495.8L441 495.9L449.8 495.7L458.6 495.5L467.4 495.3L476.2 494.2L485 492.8L493.8 491.9L502.6 490.9L511.4 491.3L520.2 492.4L529 493.2L537.8 492.8L546.6 493.2L555.4 493.3L564.2 493L573 493.5L581.8 493.9L590.6 494"></path><path fill="none" stroke-linecap="butt" stroke-linejoin="round" stroke="#d73c50" id="line__Afghanistan" stroke-width="1.5" stroke-opacity="1" d="M229.9 494.2L238.7 493.5L247.5 492.9L256.3 492L265.1 492.2L273.9 492.4L282.7 492.3L291.5 489.5L300.3 484L309.1 484.5L317.9 484.7L326.7 491.5L335.5 493.6L344.3 494.1L353.1 494.4L361.9 494.9L370.7 495L379.5 495.1L388.3 495.2L397.1 495.3L405.9 495.5L414.6 495.7L423.4 495.8L432.2 495.8L441 495.9L449.8 495.7L458.6 495.5L467.4 495.3L476.2 494.2L485 492.8L493.8 491.9L502.6 490.9L511.4 491.3L520.2 492.4L529 493.2L537.8 492.8L546.6 493.2L555.4 493.3L564.2 493L573 493.5L581.8 493.9L590.6 494"></path><path fill="none" stroke-linecap="butt" stroke-linejoin="round" stroke="#ffffff" id="outline__World" stroke-width="2.5" d="M98 444.1L106.8 442.4L115.6 441.5L124.4 439.4L133.1 436.7L141.9 434.1L150.7 432.9L159.5 430.7L168.3 428.2L177.1 429.1L185.9 429.9L194.7 427.6L203.5 426.3L212.3 424.8L221.1 423.7L229.9 425.7L238.7 427.2L247.5 428.8L256.3 428.9L265.1 427.1L273.9 426.5L282.7 426.2L291.5 425L300.3 423.6L309.1 423.5L317.9 424L326.7 424.6L335.5 425.3L344.3 425.8L353.1 426L361.9 425.5L370.7 424.5L379.5 424.7L388.3 425.3L397.1 425L405.9 424.1L414.6 424.3L423.4 423.7L432.2 422.1L441 419.4L449.8 417.8L458.6 416.6L467.4 415.2L476.2 415.2L485 417.5L493.8 414.7L502.6 413.9L511.4 413.8L520.2 413.4L529 413.5L537.8 413.9L546.6 414L555.4 413L564.2 411.6L573 411.6L581.8 415.3L590.6 411.9L599.4 411.1L608.2 410.1"></path><path fill="none" stroke-linecap="butt" stroke-linejoin="round" stroke="#18470f" id="line__World" stroke-width="1.5" stroke-opacity="1" d="M98 444.1L106.8 442.4L115.6 441.5L124.4 439.4L133.1 436.7L141.9 434.1L150.7 432.9L159.5 430.7L168.3 428.2L177.1 429.1L185.9 429.9L194.7 427.6L203.5 426.3L212.3 424.8L221.1 423.7L229.9 425.7L238.7 427.2L247.5 428.8L256.3 428.9L265.1 427.1L273.9 426.5L282.7 426.2L291.5 425L300.3 423.6L309.1 423.5L317.9 424L326.7 424.6L335.5 425.3L344.3 425.8L353.1 426L361.9 425.5L370.7 424.5L379.5 424.7L388.3 425.3L397.1 425L405.9 424.1L414.6 424.3L423.4 423.7L432.2 422.1L441 419.4L449.8 417.8L458.6 416.6L467.4 415.2L476.2 415.2L485 417.5L493.8 414.7L502.6 413.9L511.4 413.8L520.2 413.4L529 413.5L537.8 413.9L546.6 414L555.4 413L564.2 411.6L573 411.6L581.8 415.3L590.6 411.9L599.4 411.1L608.2 410.1"></path><path fill="none" stroke-linecap="butt" stroke-linejoin="round" stroke="#ffffff" id="outline__United-States" stroke-width="2.5" d="M98 188.7L106.8 175L115.6 167.2L124.4 151L133.1 137L141.9 128.9L150.7 125.9L159.5 111.9L168.3 99.6L177.1 113L185.9 126.6L194.7 110L203.5 104.2L212.3 100L221.1 100.5L229.9 120.3L238.7 135.5L247.5 153.8L256.3 158.5L265.1 144.9L273.9 149.3L282.7 149.6L291.5 141.4L300.3 129L309.1 124.2L317.9 127.9L326.7 133.4L335.5 133.3L344.3 130.8L353.1 129.1L361.9 125.9L370.7 118.1L379.5 120L388.3 122.4L397.1 120.3L405.9 116.3L414.6 129.3L423.4 127.6L432.2 129.9L441 126.4L449.8 129.8L458.6 136.2L467.4 134.9L476.2 147.1L485 167.3L493.8 159.2L502.6 165L511.4 176.6L520.2 170.7L529 170L537.8 175.7L546.6 178.5L555.4 179.8L564.2 170.5L573 175L581.8 200.1L590.6 185L599.4 179.6L608.2 185"></path><path fill="none" stroke-linecap="butt" stroke-linejoin="round" stroke="#286bbb" id="line__United-States" stroke-width="1.5" stroke-opacity="1" d="M98 188.7L106.8 175L115.6 167.2L124.4 151L133.1 137L141.9 128.9L150.7 125.9L159.5 111.9L168.3 99.6L177.1 113L185.9 126.6L194.7 110L203.5 104.2L212.3 100L221.1 100.5L229.9 120.3L238.7 135.5L247.5 153.8L256.3 158.5L265.1 144.9L273.9 149.3L282.7 149.6L291.5 141.4L300.3 129L309.1 124.2L317.9 127.9L326.7 133.4L335.5 133.3L344.3 130.8L353.1 129.1L361.9 125.9L370.7 118.1L379.5 120L388.3 122.4L397.1 120.3L405.9 116.3L414.6 129.3L423.4 127.6L432.2 129.9L441 126.4L449.8 129.8L458.6 136.2L467.4 134.9L476.2 147.1L485 167.3L493.8 159.2L502.6 165L511.4 176.6L520.2 170.7L529 170L537.8 175.7L546.6 178.5L555.4 179.8L564.2 170.5L573 175L581.8 200.1L590.6 185L599.4 179.6L608.2 185"></path><path fill="none" stroke-linecap="butt" stroke-linejoin="round" stroke="#ffffff" id="outline__United-Kingdom" stroke-width="2.5" d="M98 323.8L106.8 324.1L115.6 325L124.4 319.8L133.1 314.2L141.9 311.2L150.7 315.4L159.5 313.3L168.3 304.5L177.1 314.4L185.9 324.9L194.7 321.4L203.5 318L212.3 317L221.1 308.7L229.9 325.6L238.7 330.6L247.5 332.9L256.3 332.4L265.1 332.6L273.9 325.9L282.7 321.4L291.5 322L300.3 320.1L309.1 320.2L317.9 319.3L326.7 316L335.5 317.6L344.3 315.9L353.1 318.5L361.9 318.4L370.7 310.2L379.5 314L388.3 313.1L397.1 314.5L405.9 313.5L414.6 312.3L423.4 317.3L432.2 315.6L441 315.2L449.8 314.9L458.6 318.4L467.4 324.7L476.2 329L485 338.7L493.8 336.7L502.6 347L511.4 345.8L520.2 347.1L529 356.4L537.8 355.1L546.6 358.4L555.4 358.9L564.2 359.8L573 363.4L581.8 377.7L590.6 376.9L599.4 375.7L608.2 381.4"></path><path fill="none" stroke-linecap="butt" stroke-linejoin="round" stroke="#c4523e" id="line__United-Kingdom" stroke-width="1.5" stroke-opacity="1" d="M98 323.8L106.8 324.1L115.6 325L124.4 319.8L133.1 314.2L141.9 311.2L150.7 315.4L159.5 313.3L168.3 304.5L177.1 314.4L185.9 324.9L194.7 321.4L203.5 318L212.3 317L221.1 308.7L229.9 325.6L238.7 330.6L247.5 332.9L256.3 332.4L265.1 332.6L273.9 325.9L282.7 321.4L291.5 322L300.3 320.1L309.1 320.2L317.9 319.3L326.7 316L335.5 317.6L344.3 315.9L353.1 318.5L361.9 318.4L370.7 310.2L379.5 314L388.3 313.1L397.1 314.5L405.9 313.5L414.6 312.3L423.4 317.3L432.2 315.6L441 315.2L449.8 314.9L458.6 318.4L467.4 324.7L476.2 329L485 338.7L493.8 336.7L502.6 347L511.4 345.8L520.2 347.1L529 356.4L537.8 355.1L546.6 358.4L555.4 358.9L564.2 359.8L573 363.4L581.8 377.7L590.6 376.9L599.4 375.7L608.2 381.4"></path><path fill="none" stroke-linecap="butt" stroke-linejoin="round" stroke="#ffffff" id="outline__South-Africa" stroke-width="2.5" d="M98 422L106.8 423.8L115.6 423.1L124.4 421.4L133.1 421.5L141.9 420.4L150.7 416.9L159.5 416.6L168.3 412.9L177.1 412.9L185.9 409.8L194.7 408.4L203.5 408.7L212.3 411.8L221.1 411.4L229.9 408L238.7 396L247.5 391.2L256.3 392.6L265.1 386.1L273.9 387L282.7 388.6L291.5 390.7L300.3 383.9L309.1 392.5L317.9 392.2L326.7 395.6L335.5 397.2L344.3 399.1L353.1 396.7L361.9 393.9L370.7 393.4L379.5 392.5L388.3 395.6L397.1 393.4L405.9 394.2L414.6 394.6L423.4 398.1L432.2 390.9L441 382.3L449.8 389.4L458.6 388.3L467.4 386.4L476.2 379.9L485 381.8L493.8 382.3L502.6 385.1L511.4 388.3L520.2 389.3L529 389.7L537.8 394L546.6 390.4L555.4 391.2L564.2 396.4L573 393.2L581.8 400.8L590.6 400.9L599.4 405.3L608.2 406.4"></path><path fill="none" stroke-linecap="butt" stroke-linejoin="round" stroke="#338711" id="line__South-Africa" stroke-width="1.5" stroke-opacity="1" d="M98 422L106.8 423.8L115.6 423.1L124.4 421.4L133.1 421.5L141.9 420.4L150.7 416.9L159.5 416.6L168.3 412.9L177.1 412.9L185.9 409.8L194.7 408.4L203.5 408.7L212.3 411.8L221.1 411.4L229.9 408L238.7 396L247.5 391.2L256.3 392.6L265.1 386.1L273.9 387L282.7 388.6L291.5 390.7L300.3 383.9L309.1 392.5L317.9 392.2L326.7 395.6L335.5 397.2L344.3 399.1L353.1 396.7L361.9 393.9L370.7 393.4L379.5 392.5L388.3 395.6L397.1 393.4L405.9 394.2L414.6 394.6L423.4 398.1L432.2 390.9L441 382.3L449.8 389.4L458.6 388.3L467.4 386.4L476.2 379.9L485 381.8L493.8 382.3L502.6 385.1L511.4 388.3L520.2 389.3L529 389.7L537.8 394L546.6 390.4L555.4 391.2L564.2 396.4L573 393.2L581.8 400.8L590.6 400.9L599.4 405.3L608.2 406.4"></path><path fill="none" stroke-linecap="butt" stroke-linejoin="round" stroke="#ffffff" id="outline__Morocco" stroke-width="2.5" d="M98 491.3L106.8 489.8L115.6 489.6L124.4 489.3L133.1 488.8L141.9 488.7L150.7 488.4L159.5 487.9L168.3 487.2L177.1 486.8L185.9 486.9L194.7 486.3L203.5 485.3L212.3 484.9L221.1 483.9L229.9 484.2L238.7 484.9L247.5 484.8L256.3 484.8L265.1 485L273.9 484.9L282.7 484.7L291.5 484.6L300.3 484.2L309.1 483.2L317.9 483.1L326.7 483.1L335.5 481.8L344.3 481.8L353.1 480.6L361.9 481.1L370.7 480.6L379.5 480.3L388.3 480.1L397.1 479.7L405.9 480.1L414.6 478.9L423.4 478.7L432.2 478.9L441 476.7L449.8 475.2L458.6 475.1L467.4 475.5L476.2 473.7L485 474.5L493.8 472.4L502.6 471.5L511.4 471.4L520.2 471.1L529 471.1L537.8 470.9L546.6 471L555.4 470.1L564.2 469.5L573 467.3L581.8 469.9L590.6 467.3L599.4 467.8L608.2 467.7"></path><path fill="none" stroke-linecap="butt" stroke-linejoin="round" stroke="#970046" id="line__Morocco" stroke-width="1.5" stroke-opacity="1" d="M98 491.3L106.8 489.8L115.6 489.6L124.4 489.3L133.1 488.8L141.9 488.7L150.7 488.4L159.5 487.9L168.3 487.2L177.1 486.8L185.9 486.9L194.7 486.3L203.5 485.3L212.3 484.9L221.1 483.9L229.9 484.2L238.7 484.9L247.5 484.8L256.3 484.8L265.1 485L273.9 484.9L282.7 484.7L291.5 484.6L300.3 484.2L309.1 483.2L317.9 483.1L326.7 483.1L335.5 481.8L344.3 481.8L353.1 480.6L361.9 481.1L370.7 480.6L379.5 480.3L388.3 480.1L397.1 479.7L405.9 480.1L414.6 478.9L423.4 478.7L432.2 478.9L441 476.7L449.8 475.2L458.6 475.1L467.4 475.5L476.2 473.7L485 474.5L493.8 472.4L502.6 471.5L511.4 471.4L520.2 471.1L529 471.1L537.8 470.9L546.6 471L555.4 470.1L564.2 469.5L573 467.3L581.8 469.9L590.6 467.3L599.4 467.8L608.2 467.7"></path><path fill="none" stroke-linecap="butt" stroke-linejoin="round" stroke="#ffffff" id="outline__Lower-middle-income-countries" stroke-width="2.5" d="M98 493L106.8 492.8L115.6 492.7L124.4 492.5L133.1 492.2L141.9 492.2L150.7 492.1L159.5 492L168.3 491.8L177.1 491.7L185.9 491.3L194.7 491.1L203.5 490.8L212.3 490.7L221.1 490.4L229.9 490.4L238.7 490L247.5 489.9L256.3 489.5L265.1 489.3L273.9 481.8L282.7 481.9L291.5 481.6L300.3 481.4L309.1 481.3L317.9 480.1L326.7 480.5L335.5 481.2L344.3 482L353.1 482.3L361.9 481.9L370.7 481.9L379.5 481.8L388.3 481.6L397.1 481.4L405.9 481.1L414.6 481.1L423.4 480.8L432.2 480.7L441 479.8L449.8 479.4L458.6 478.9L467.4 478.2L476.2 477.8L485 477.6L493.8 477.1L502.6 476.5L511.4 476.2L520.2 476L529 475.4L537.8 475.4L546.6 475.1L555.4 474.2L564.2 473.4L573 473L581.8 474.1L590.6 473.1L599.4 472.8L608.2 472.1"></path><path fill="none" stroke-linecap="butt" stroke-linejoin="round" stroke="#008291" id="line__Lower-middle-income-countries" stroke-width="1.5" stroke-opacity="1" d="M98 493L106.8 492.8L115.6 492.7L124.4 492.5L133.1 492.2L141.9 492.2L150.7 492.1L159.5 492L168.3 491.8L177.1 491.7L185.9 491.3L194.7 491.1L203.5 490.8L212.3 490.7L221.1 490.4L229.9 490.4L238.7 490L247.5 489.9L256.3 489.5L265.1 489.3L273.9 481.8L282.7 481.9L291.5 481.6L300.3 481.4L309.1 481.3L317.9 480.1L326.7 480.5L335.5 481.2L344.3 482L353.1 482.3L361.9 481.9L370.7 481.9L379.5 481.8L388.3 481.6L397.1 481.4L405.9 481.1L414.6 481.1L423.4 480.8L432.2 480.7L441 479.8L449.8 479.4L458.6 478.9L467.4 478.2L476.2 477.8L485 477.6L493.8 477.1L502.6 476.5L511.4 476.2L520.2 476L529 475.4L537.8 475.4L546.6 475.1L555.4 474.2L564.2 473.4L573 473L581.8 474.1L590.6 473.1L599.4 472.8L608.2 472.1"></path><path fill="none" stroke-linecap="butt" stroke-linejoin="round" stroke="#ffffff" id="outline__India" stroke-width="2.5" d="M98 491.7L106.8 491.6L115.6 491.6L124.4 491.4L133.1 490.9L141.9 491.2L150.7 491.1L159.5 490.9L168.3 490.9L177.1 490.7L185.9 490.4L194.7 490.2L203.5 490L212.3 489.9L221.1 489.7L229.9 489.6L238.7 489L247.5 489.3L256.3 489.1L265.1 488.7L273.9 488.5L282.7 488.1L291.5 487.8L300.3 487.2L309.1 486.5L317.9 486L326.7 485.6L335.5 485.3L344.3 485.3L353.1 484.9L361.9 484.3L370.7 484L379.5 483.6L388.3 483L397.1 482.9L405.9 482.5L414.6 482.7L423.4 482.4L432.2 482.2L441 481.2L449.8 480.5L458.6 479.9L467.4 478.8L476.2 478L485 476.9L493.8 476.3L502.6 475.5L511.4 474.6L520.2 474.2L529 473L537.8 472.4L546.6 471.7L555.4 471L564.2 469.8L573 469.4L581.8 471.1L590.6 469.1L599.4 467.8L608.2 466"></path><path fill="none" stroke-linecap="butt" stroke-linejoin="round" stroke="#9a5129" id="line__India" stroke-width="1.5" stroke-opacity="1" d="M98 491.7L106.8 491.6L115.6 491.6L124.4 491.4L133.1 490.9L141.9 491.2L150.7 491.1L159.5 490.9L168.3 490.9L177.1 490.7L185.9 490.4L194.7 490.2L203.5 490L212.3 489.9L221.1 489.7L229.9 489.6L238.7 489L247.5 489.3L256.3 489.1L265.1 488.7L273.9 488.5L282.7 488.1L291.5 487.8L300.3 487.2L309.1 486.5L317.9 486L326.7 485.6L335.5 485.3L344.3 485.3L353.1 484.9L361.9 484.3L370.7 484L379.5 483.6L388.3 483L397.1 482.9L405.9 482.5L414.6 482.7L423.4 482.4L432.2 482.2L441 481.2L449.8 480.5L458.6 479.9L467.4 478.8L476.2 478L485 476.9L493.8 476.3L502.6 475.5L511.4 474.6L520.2 474.2L529 473L537.8 472.4L546.6 471.7L555.4 471L564.2 469.8L573 469.4L581.8 471.1L590.6 469.1L599.4 467.8L608.2 466"></path><path fill="none" stroke-linecap="butt" stroke-linejoin="round" stroke="#ffffff" id="outline__China" stroke-width="2.5" d="M98 488.1L106.8 487.6L115.6 488.7L124.4 488.8L133.1 487.4L141.9 485.1L150.7 483.3L159.5 482.5L168.3 482.1L177.1 481.9L185.9 480.4L194.7 479.8L203.5 478.6L212.3 477.1L221.1 476.8L229.9 476.8L238.7 477.4L247.5 476.8L256.3 475.9L265.1 474.7L273.9 473.2L282.7 472.5L291.5 471.1L300.3 469.6L309.1 468.7L317.9 468.9L326.7 467.9L335.5 466.7L344.3 464.7L353.1 463L361.9 462.3L370.7 460.8L379.5 460.8L388.3 461L397.1 460L405.9 458.9L414.6 457L423.4 453.8L432.2 447L441 438.9L449.8 431.5L458.6 425.7L467.4 420L476.2 417.5L485 414.6L493.8 409.5L502.6 403.3L511.4 400.1L520.2 397.1L529 395.2L537.8 394.7L546.6 394.9L555.4 391.5L564.2 387L573 382.3L581.8 378.9L590.6 372.3L599.4 370.4L608.2 362.1"></path><path fill="none" stroke-linecap="butt" stroke-linejoin="round" stroke="#a2559c" id="line__China" stroke-width="1.5" stroke-opacity="1" d="M98 488.1L106.8 487.6L115.6 488.7L124.4 488.8L133.1 487.4L141.9 485.1L150.7 483.3L159.5 482.5L168.3 482.1L177.1 481.9L185.9 480.4L194.7 479.8L203.5 478.6L212.3 477.1L221.1 476.8L229.9 476.8L238.7 477.4L247.5 476.8L256.3 475.9L265.1 474.7L273.9 473.2L282.7 472.5L291.5 471.1L300.3 469.6L309.1 468.7L317.9 468.9L326.7 467.9L335.5 466.7L344.3 464.7L353.1 463L361.9 462.3L370.7 460.8L379.5 460.8L388.3 461L397.1 460L405.9 458.9L414.6 457L423.4 453.8L432.2 447L441 438.9L449.8 431.5L458.6 425.7L467.4 420L476.2 417.5L485 414.6L493.8 409.5L502.6 403.3L511.4 400.1L520.2 397.1L529 395.2L537.8 394.7L546.6 394.9L555.4 391.5L564.2 387L573 382.3L581.8 378.9L590.6 372.3L599.4 370.4L608.2 362.1"></path><path fill="none" stroke-linecap="butt" stroke-linejoin="round" stroke="#ffffff" id="outline__Brazil" stroke-width="2.5" d="M98 483.6L106.8 482.8L115.6 482.7L124.4 481.1L133.1 480.1L141.9 477.7L150.7 476L159.5 473.6L168.3 470.2L177.1 467.8L185.9 466.9L194.7 464.9L203.5 463.5L212.3 460.9L221.1 458.5L229.9 458.5L238.7 460.2L247.5 459.2L256.3 459.6L265.1 458L273.9 456.1L282.7 454.8L291.5 454.5L300.3 454L309.1 453.6L317.9 454.6L326.7 454L335.5 454.1L344.3 452.9L353.1 451.5L361.9 449.4L370.7 447.3L379.5 445L388.3 444L397.1 444.1L405.9 442.5L414.6 444.5L423.4 444L432.2 443.6L441 441.7L449.8 440.9L458.6 440L467.4 436.9L476.2 435L485 436L493.8 431.1L502.6 429.4L511.4 428L520.2 427L529 425.8L537.8 427.3L546.6 429.6L555.4 429.5L564.2 429.8L573 429.2L581.8 432.3L590.6 429.3L599.4 426.6L608.2 424.6"></path><path fill="none" stroke-linecap="butt" stroke-linejoin="round" stroke="#00295b" id="line__Brazil" stroke-width="1.5" stroke-opacity="1" d="M98 483.6L106.8 482.8L115.6 482.7L124.4 481.1L133.1 480.1L141.9 477.7L150.7 476L159.5 473.6L168.3 470.2L177.1 467.8L185.9 466.9L194.7 464.9L203.5 463.5L212.3 460.9L221.1 458.5L229.9 458.5L238.7 460.2L247.5 459.2L256.3 459.6L265.1 458L273.9 456.1L282.7 454.8L291.5 454.5L300.3 454L309.1 453.6L317.9 454.6L326.7 454L335.5 454.1L344.3 452.9L353.1 451.5L361.9 449.4L370.7 447.3L379.5 445L388.3 444L397.1 444.1L405.9 442.5L414.6 444.5L423.4 444L432.2 443.6L441 441.7L449.8 440.9L458.6 440L467.4 436.9L476.2 435L485 436L493.8 431.1L502.6 429.4L511.4 428L520.2 427L529 425.8L537.8 427.3L546.6 429.6L555.4 429.5L564.2 429.8L573 429.2L581.8 432.3L590.6 429.3L599.4 426.6L608.2 424.6"></path><path fill="none" stroke-linecap="butt" stroke-linejoin="round" stroke="#ffffff" id="outline__Austria" stroke-width="2.5" d="M98 391.2L106.8 387.1L115.6 386.8L124.4 379.8L133.1 376L141.9 358.9L150.7 360.1L159.5 356.2L168.3 346.5L177.1 346L185.9 346.6L194.7 341.1L203.5 340.7L212.3 333.9L221.1 323.9L229.9 324.6L238.7 330.1L247.5 335.6L256.3 335.8L265.1 337.4L273.9 327.7L282.7 327.5L291.5 318.2L300.3 321.1L309.1 320.9L317.9 320.8L326.7 314.4L335.5 318.7L344.3 316.3L353.1 318.5L361.9 309.5L370.7 305.6L379.5 303.4L388.3 299.2L397.1 297.8L405.9 297.1L414.6 292L423.4 292.9L432.2 293.5L441 287.5L449.8 284.5L458.6 288.2L467.4 291.7L476.2 290.2L485 297.9L493.8 292.7L502.6 305.8L511.4 297.7L520.2 300.6L529 309.7L537.8 311.1L546.6 306.9L555.4 304.6L564.2 309.7L573 301.7L581.8 314.9L590.6 312.5L599.4 324.8L608.2 322.9"></path><path fill="none" stroke-linecap="butt" stroke-linejoin="round" stroke="#883039" id="line__Austria" stroke-width="1.5" stroke-opacity="1" d="M98 391.2L106.8 387.1L115.6 386.8L124.4 379.8L133.1 376L141.9 358.9L150.7 360.1L159.5 356.2L168.3 346.5L177.1 346L185.9 346.6L194.7 341.1L203.5 340.7L212.3 333.9L221.1 323.9L229.9 324.6L238.7 330.1L247.5 335.6L256.3 335.8L265.1 337.4L273.9 327.7L282.7 327.5L291.5 318.2L300.3 321.1L309.1 320.9L317.9 320.8L326.7 314.4L335.5 318.7L344.3 316.3L353.1 318.5L361.9 309.5L370.7 305.6L379.5 303.4L388.3 299.2L397.1 297.8L405.9 297.1L414.6 292L423.4 292.9L432.2 293.5L441 287.5L449.8 284.5L458.6 288.2L467.4 291.7L476.2 290.2L485 297.9L493.8 292.7L502.6 305.8L511.4 297.7L520.2 300.6L529 309.7L537.8 311.1L546.6 306.9L555.4 304.6L564.2 309.7L573 301.7L581.8 314.9L590.6 312.5L599.4 324.8L608.2 322.9"></path><path fill="none" stroke-linecap="butt" stroke-linejoin="round" stroke="#ffffff" id="outline__Australia" stroke-width="2.5" d="M98 345L106.8 341L115.6 334.6L124.4 327.9L133.1 324.4L141.9 313.5L150.7 310.2L159.5 306.2L168.3 296.2L177.1 286.6L185.9 285.7L194.7 280.7L203.5 272.6L212.3 268L221.1 262.2L229.9 264.4L238.7 264.2L247.5 269.9L256.3 275.3L265.1 270.4L273.9 266.9L282.7 266.1L291.5 263.3L300.3 256.4L309.1 248.6L317.9 247.2L326.7 252.1L335.5 250.9L344.3 247.8L353.1 240.9L361.9 237.2L370.7 232.7L379.5 229.1L388.3 225.5L397.1 217.4L405.9 218.9L414.6 220.1L423.4 217.9L432.2 217.1L441 211.4L449.8 213.7L458.6 205.9L467.4 204.1L476.2 205L485 214.7L493.8 219.4L502.6 214.6L511.4 223.2L520.2 224.3L529 226.6L537.8 224.6L546.6 228L555.4 233.1L564.2 233.4L573 228.6L581.8 246.8L590.6 248.6L599.4 239.9L608.2 240.7"></path><path fill="none" stroke-linecap="butt" stroke-linejoin="round" stroke="#6d3e91" id="line__Australia" stroke-width="1.5" stroke-opacity="1" d="M98 345L106.8 341L115.6 334.6L124.4 327.9L133.1 324.4L141.9 313.5L150.7 310.2L159.5 306.2L168.3 296.2L177.1 286.6L185.9 285.7L194.7 280.7L203.5 272.6L212.3 268L221.1 262.2L229.9 264.4L238.7 264.2L247.5 269.9L256.3 275.3L265.1 270.4L273.9 266.9L282.7 266.1L291.5 263.3L300.3 256.4L309.1 248.6L317.9 247.2L326.7 252.1L335.5 250.9L344.3 247.8L353.1 240.9L361.9 237.2L370.7 232.7L379.5 229.1L388.3 225.5L397.1 217.4L405.9 218.9L414.6 220.1L423.4 217.9L432.2 217.1L441 211.4L449.8 213.7L458.6 205.9L467.4 204.1L476.2 205L485 214.7L493.8 219.4L502.6 214.6L511.4 223.2L520.2 224.3L529 226.6L537.8 224.6L546.6 228L555.4 233.1L564.2 233.4L573 228.6L581.8 246.8L590.6 248.6L599.4 239.9L608.2 240.7"></path><path fill="none" stroke-linecap="butt" stroke-linejoin="round" stroke="#ffffff" id="outline__Asia" stroke-width="2.5" d="M98 485.3L106.8 484.5L115.6 484.3L124.4 483.7L133.1 482.1L141.9 480.5L150.7 479.4L159.5 478.6L168.3 477.6L177.1 477.7L185.9 477.1L194.7 476.4L203.5 475.5L212.3 474.6L221.1 473.9L229.9 474.4L238.7 474.5L247.5 474.4L256.3 473.6L265.1 472.5L273.9 468.8L282.7 468.3L291.5 467.1L300.3 465.7L309.1 464.9L317.9 464.3L326.7 463.6L335.5 462.7L344.3 461.8L353.1 460.6L361.9 459.7L370.7 458.6L379.5 458.1L388.3 458.5L397.1 457.8L405.9 456.8L414.6 456L423.4 454.5L432.2 451.8L441 448L449.8 444.9L458.6 442.6L467.4 440L476.2 438.8L485 438.2L493.8 435.1L502.6 432.7L511.4 431.2L520.2 430.3L529 429.2L537.8 428.6L546.6 428.3L555.4 426.3L564.2 424.4L573 422.9L581.8 423.8L590.6 420.5L599.4 418.9L608.2 416.1"></path><path fill="none" stroke-linecap="butt" stroke-linejoin="round" stroke="#2c8465" id="line__Asia" stroke-width="1.5" stroke-opacity="1" d="M98 485.3L106.8 484.5L115.6 484.3L124.4 483.7L133.1 482.1L141.9 480.5L150.7 479.4L159.5 478.6L168.3 477.6L177.1 477.7L185.9 477.1L194.7 476.4L203.5 475.5L212.3 474.6L221.1 473.9L229.9 474.4L238.7 474.5L247.5 474.4L256.3 473.6L265.1 472.5L273.9 468.8L282.7 468.3L291.5 467.1L300.3 465.7L309.1 464.9L317.9 464.3L326.7 463.6L335.5 462.7L344.3 461.8L353.1 460.6L361.9 459.7L370.7 458.6L379.5 458.1L388.3 458.5L397.1 457.8L405.9 456.8L414.6 456L423.4 454.5L432.2 451.8L441 448L449.8 444.9L458.6 442.6L467.4 440L476.2 438.8L485 438.2L493.8 435.1L502.6 432.7L511.4 431.2L520.2 430.3L529 429.2L537.8 428.6L546.6 428.3L555.4 426.3L564.2 424.4L573 422.9L581.8 423.8L590.6 420.5L599.4 418.9L608.2 416.1"></path><path fill="none" stroke-linecap="butt" stroke-linejoin="round" stroke="#ffffff" id="outline__Argentina" stroke-width="2.5" d="M98 436.4L106.8 435.4L115.6 434.6L124.4 433.5L133.1 432.4L141.9 436.7L150.7 434.1L159.5 434.3L168.3 432.6L177.1 431.1L185.9 433.7L194.7 431.6L203.5 429.8L212.3 430.8L221.1 427.1L229.9 428.5L238.7 431.6L247.5 431.4L256.3 429.8L265.1 430.6L273.9 432.3L282.7 429.7L291.5 427.8L300.3 427.6L309.1 431.1L317.9 433.1L326.7 433L335.5 429.3L344.3 428L353.1 425.3L361.9 423.9L370.7 421.6L379.5 421.6L388.3 419.8L397.1 419.8L405.9 420.4L414.6 423L423.4 426.8L432.2 422.5L441 418.7L449.8 414.8L458.6 411.6L467.4 408.8L476.2 408.6L485 411.9L493.8 409.7L502.6 408.1L511.4 405.7L520.2 403L529 404.1L537.8 403.4L546.6 404.7L555.4 405.6L564.2 407L573 412.8L581.8 418.5L590.6 411L599.4 405.2L608.2 406.5"></path><path fill="none" stroke-linecap="butt" stroke-linejoin="round" stroke="#996d39" id="line__Argentina" stroke-width="1.5" stroke-opacity="1" d="M98 436.4L106.8 435.4L115.6 434.6L124.4 433.5L133.1 432.4L141.9 436.7L150.7 434.1L159.5 434.3L168.3 432.6L177.1 431.1L185.9 433.7L194.7 431.6L203.5 429.8L212.3 430.8L221.1 427.1L229.9 428.5L238.7 431.6L247.5 431.4L256.3 429.8L265.1 430.6L273.9 432.3L282.7 429.7L291.5 427.8L300.3 427.6L309.1 431.1L317.9 433.1L326.7 433L335.5 429.3L344.3 428L353.1 425.3L361.9 423.9L370.7 421.6L379.5 421.6L388.3 419.8L397.1 419.8L405.9 420.4L414.6 423L423.4 426.8L432.2 422.5L441 418.7L449.8 414.8L458.6 411.6L467.4 408.8L476.2 408.6L485 411.9L493.8 409.7L502.6 408.1L511.4 405.7L520.2 403L529 404.1L537.8 403.4L546.6 404.7L555.4 405.6L564.2 407L573 412.8L581.8 418.5L590.6 411L599.4 405.2L608.2 406.5"></path><path fill="none" stroke-linecap="butt" stroke-linejoin="round" stroke="#ffffff" id="outline__Algeria" stroke-width="2.5" d="M98 488.6L106.8 487.1L115.6 487.8L124.4 487.4L133.1 486.6L141.9 485.9L150.7 485.3L159.5 484.2L168.3 482.1L177.1 481L185.9 478.6L194.7 476.6L203.5 475.4L212.3 470.7L221.1 463.6L229.9 458.4L238.7 451.7L247.5 446.5L256.3 443.7L265.1 447.5L273.9 448.7L282.7 447.6L291.5 447.8L300.3 445.7L309.1 448.4L317.9 446.7L326.7 448.4L335.5 448.2L344.3 452.6L353.1 453L361.9 452.2L370.7 453.4L379.5 455.8L388.3 455L397.1 455.2L405.9 457.3L414.6 456.4L423.4 455.5L432.2 454.2L441 453.2L449.8 451.7L458.6 450.8L467.4 449.1L476.2 447.1L485 445.1L493.8 447.2L502.6 445.3L511.4 441.6L520.2 439.5L529 435.6L537.8 433.5L546.6 434.8L555.4 435.3L564.2 432.1L573 430.9L581.8 436.3L590.6 431.9L599.4 430.5L608.2 434.1"></path><path fill="none" stroke-linecap="butt" stroke-linejoin="round" stroke="#b13507" id="line__Algeria" stroke-width="1.5" stroke-opacity="1" d="M98 488.6L106.8 487.1L115.6 487.8L124.4 487.4L133.1 486.6L141.9 485.9L150.7 485.3L159.5 484.2L168.3 482.1L177.1 481L185.9 478.6L194.7 476.6L203.5 475.4L212.3 470.7L221.1 463.6L229.9 458.4L238.7 451.7L247.5 446.5L256.3 443.7L265.1 447.5L273.9 448.7L282.7 447.6L291.5 447.8L300.3 445.7L309.1 448.4L317.9 446.7L326.7 448.4L335.5 448.2L344.3 452.6L353.1 453L361.9 452.2L370.7 453.4L379.5 455.8L388.3 455L397.1 455.2L405.9 457.3L414.6 456.4L423.4 455.5L432.2 454.2L441 453.2L449.8 451.7L458.6 450.8L467.4 449.1L476.2 447.1L485 445.1L493.8 447.2L502.6 445.3L511.4 441.6L520.2 439.5L529 435.6L537.8 433.5L546.6 434.8L555.4 435.3L564.2 432.1L573 430.9L581.8 436.3L590.6 431.9L599.4 430.5L608.2 434.1"></path><path fill="none" stroke-linecap="butt" stroke-linejoin="round" stroke="#ffffff" id="outline__Africa" stroke-width="2.5" d="M98 487.7L106.8 487.5L115.6 487.6L124.4 487.4L133.1 487.3L141.9 486.8L150.7 486.4L159.5 486.1L168.3 485.5L177.1 485.3L185.9 484.9L194.7 484.3L203.5 484L212.3 483.8L221.1 483.1L229.9 482.5L238.7 481.2L247.5 480.7L256.3 480.6L265.1 480.6L273.9 480.4L282.7 480.5L291.5 480.5L300.3 479.8L309.1 480.3L317.9 480.2L326.7 480.6L335.5 480.8L344.3 481.1L353.1 481L361.9 480.8L370.7 480.8L379.5 480.8L388.3 481L397.1 480.9L405.9 480.9L414.6 480.7L423.4 480.9L432.2 480.6L441 479.8L449.8 480.2L458.6 480.3L467.4 480.1L476.2 479.6L485 479.7L493.8 479.6L502.6 479.9L511.4 479.7L520.2 479.6L529 479.6L537.8 479.7L546.6 479.7L555.4 479.5L564.2 479.5L573 479.6L581.8 480.9L590.6 480L599.4 480.2L608.2 480.6"></path><path fill="none" stroke-linecap="butt" stroke-linejoin="round" stroke="#4c6a9c" id="line__Africa" stroke-width="1.5" stroke-opacity="1" d="M98 487.7L106.8 487.5L115.6 487.6L124.4 487.4L133.1 487.3L141.9 486.8L150.7 486.4L159.5 486.1L168.3 485.5L177.1 485.3L185.9 484.9L194.7 484.3L203.5 484L212.3 483.8L221.1 483.1L229.9 482.5L238.7 481.2L247.5 480.7L256.3 480.6L265.1 480.6L273.9 480.4L282.7 480.5L291.5 480.5L300.3 479.8L309.1 480.3L317.9 480.2L326.7 480.6L335.5 480.8L344.3 481.1L353.1 481L361.9 480.8L370.7 480.8L379.5 480.8L388.3 481L397.1 480.9L405.9 480.9L414.6 480.7L423.4 480.9L432.2 480.6L441 479.8L449.8 480.2L458.6 480.3L467.4 480.1L476.2 479.6L485 479.7L493.8 479.6L502.6 479.9L511.4 479.7L520.2 479.6L529 479.6L537.8 479.7L546.6 479.7L555.4 479.5L564.2 479.5L573 479.6L581.8 480.9L590.6 480L599.4 480.2L608.2 480.6"></path></g></g><g id="footer" class="SourcesFooter" style="fill:#858585"><g id="sources" class="markdown-text-wrap"><text x="16.0" y="545.3" style="font-size:13px;line-height:1.2"><tspan x="16" y="545.3"><tspan style="font-weight:700">Data source:</tspan> U.S. Energy Information Administration (2023); Energy Institute - Statistical Review of World Energy (2024); Population based</tspan><tspan x="16" y="560.9">on various sources (2023)</tspan></text></g><text id="origin-url" font-size="13.00" x="16.0" y="581.0"><tspan x="16" y="581.0100000000001"><a target="_blank" style="fill: #858585;" href="https://ourworldindata.org/energy">OurWorldinData.org/energy</a> | <a target="_blank" style="fill: #858585;" href="https://creativecommons.org/licenses/by/4.0/">CC BY</a></tspan></text></g><line id="separator-line" x1="16" y1="600" x2="834" y2="600" stroke="#e7e7e7"></line><g id="details" transform="translate(15, 616)"><g class="markdown-text-wrap"><text x="0.0" y="12.0" style="font-size:12.375px;fill:#858585;line-height:1.2"><tspan x="0" y="12.0"><tspan style="font-weight:700">1.</tspan> <tspan style="font-weight:700">Watt-hour</tspan> A watt-hour is the energy delivered by one watt of power for one hour. Since one watt is equivalent to one joule per second, a</tspan><tspan x="0" y="26.9">watt-hour is equivalent to 3600 joules of energy.</tspan><tspan x="0" y="41.7">Metric prefixes are used for multiples of the unit, usually:</tspan><tspan x="0" y="56.6">• kilowatt-hours (kWh), or a thousand watt-hours.</tspan><tspan x="0" y="71.4">• Megawatt-hours (MWh), or a million watt-hours.</tspan><tspan x="0" y="86.3">• Gigawatt-hours (GWh), or a billion watt-hours.</tspan><tspan x="0" y="101.1">• Terawatt-hours (TWh), or a trillion watt-hours.</tspan></text></g><g class="markdown-text-wrap"><text x="0.0" y="124.0" style="font-size:12.375px;fill:#858585;line-height:1.2"><tspan x="0" y="124.0"><tspan style="font-weight:700">2.</tspan> <tspan style="font-weight:700">Primary energy</tspan> Primary energy is the energy available as resources – such as the fuels burnt in power plants – before it has been transformed.</tspan><tspan x="0" y="138.8">This relates to the coal before it has been burned, the uranium, or the barrels of oil.</tspan><tspan x="0" y="153.7">Primary energy includes energy that the end user needs, in the form of electricity, transport and heating, plus inefficiencies and energy that is lost</tspan><tspan x="0" y="168.5">when raw resources are transformed into a usable form.</tspan><tspan x="0" y="183.4">You can read more on the different ways of measuring energy <a href="https://ourworldindata.org/energy" target="_blank" style="text-decoration:underline" rel="noopener">in our article</a>.</tspan></text></g><g class="markdown-text-wrap"><text x="0.0" y="206.2" style="font-size:12.375px;fill:#858585;line-height:1.2"><tspan x="0" y="206.2"><tspan style="font-weight:700">3.</tspan> <tspan style="font-weight:700">Substitution method</tspan> The “substitution method” is one method used to adjust primary energy consumption for efficiency losses experienced by</tspan><tspan x="0" y="221.1">fossil fuels. It tries to adjust non-fossil energy sources to the inputs that would be needed if it was generated from fossil fuels. It assumes that wind</tspan><tspan x="0" y="235.9">and solar electricity is as inefficient as coal or gas.</tspan><tspan x="0" y="250.8">To do this, energy generation from non-fossil sources are divided by a standard ‘thermal efficiency factor’ – typically around 0.4</tspan><tspan x="0" y="265.6">Nuclear power is also adjusted despite it also experiencing thermal losses in a power plant. Since it’s reported in terms of electricity output, we need</tspan><tspan x="0" y="280.5">to do this adjustment to calculate its equivalent input value.</tspan><tspan x="0" y="295.3">You can read more about this adjustment <a href="https://ourworldindata.org/energy-substitution-method" target="_blank" style="text-decoration:underline" rel="noopener">in our article</a>.</tspan></text></g></g></svg>